<?xml version="1.0" encoding="UTF-8" standalone="no"?>
<svg
   xmlns:dc="http://purl.org/dc/elements/1.1/"
   xmlns:cc="http://creativecommons.org/ns#"
   xmlns:rdf="http://www.w3.org/1999/02/22-rdf-syntax-ns#"
   xmlns:svg="http://www.w3.org/2000/svg"
   xmlns="http://www.w3.org/2000/svg"
   xmlns:sodipodi="http://sodipodi.sourceforge.net/DTD/sodipodi-0.dtd"
   xmlns:inkscape="http://www.inkscape.org/namespaces/inkscape"
   viewBox="0 0 45 45"
   style="enable-background:new 0 0 45 45;"
   xml:space="preserve"
   version="1.1"
   id="svg2"
   inkscape:version="0.91 r13725"
   sodipodi:docname="anger.svg"><sodipodi:namedview
     pagecolor="#ffffff"
     bordercolor="#666666"
     borderopacity="1"
     objecttolerance="10"
     gridtolerance="10"
     guidetolerance="10"
     inkscape:pageopacity="0"
     inkscape:pageshadow="2"
     inkscape:window-width="1600"
     inkscape:window-height="836"
     id="namedview14"
     showgrid="false"
     inkscape:zoom="5.2444444"
     inkscape:cx="2.1927966"
     inkscape:cy="22.5"
     inkscape:window-x="0"
     inkscape:window-y="62"
     inkscape:window-maximized="0"
     inkscape:current-layer="svg2" /><metadata
     id="metadata8"><rdf:RDF><cc:Work
         rdf:about=""><dc:format>image/svg+xml</dc:format><dc:type
           rdf:resource="http://purl.org/dc/dcmitype/StillImage" /><dc:title></dc:title></cc:Work></rdf:RDF></metadata><defs
     id="defs6"><clipPath
       id="clipPath16"
       clipPathUnits="userSpaceOnUse"><path
         id="path18"
         d="M 0,36 36,36 36,0 0,0 0,36 Z" /></clipPath></defs><path
     id="path22"
     style="fill:#800000;fill-opacity:1;fill-rule:nonzero;stroke:none"
     d="m 42.5,23.5925 c 0,0 -3.57625,-19.08875 -3.67625,-19.78 -0.32,-2.225 -2.57125,-3.8475 -5.30375,-3.81125 0,0 -14.7175,-0.0025 -22.2175,-0.0025 -7.5,0 -7.5525,2.885 -7.5525,9.8125 L 3.85,26.755 c -0.02875,0.67125 -0.0475,1.3475 -0.0475,1.9625 0,2.5 3.75,8.75125 3.75,13.12625 0,3.125 1.27625,3.125 4.40125,3.125 2.41625,0 3.1375,-3.75 3.1375,-6.875 0,-1.30125 -0.8125,-4.58375 -1.50875,-7.16 l 20.2725,-0.965 c 8.43625,-0.26125 9.2175,-3.595 8.645,-6.37625"
     inkscape:connector-curvature="0" /><g
     id="g24"
     transform="matrix(1.25,0,0,-1.25,41.149875,19.042375)"><path
       inkscape:connector-curvature="0"
       d="m 0,0 c -0.516,0.295 -10.509,-0.517 -14.409,-0.852 -0.025,0.013 -0.042,0.034 -0.068,0.044 -0.057,0.023 -1.391,0.564 -1.444,1.859 -0.043,1.072 0.502,1.735 0.788,2.008 l 13.528,0.87 c 0.55,0.036 0.968,0.511 0.933,1.062 -0.036,0.551 -0.496,0.981 -1.062,0.934 L -13.412,5.174 c -0.815,0.501 -1.74,1.25 -1.754,2.079 -0.012,0.794 0.786,1.57 1.269,1.938 l 10.935,0.445 c 0.552,0.023 0.981,0.488 0.958,1.04 -0.022,0.552 -0.459,0.976 -1.04,0.958 l -10.528,-0.428 c -0.041,0.012 -0.076,0.037 -0.12,0.043 -0.371,0.054 -0.588,0.217 -0.704,0.529 -0.182,0.487 -0.036,1.124 0.214,1.413 0.088,0.101 0.123,0.094 0.136,0.091 0.54,-0.116 1.072,0.227 1.188,0.767 0.116,0.54 -0.228,1.072 -0.768,1.188 -0.764,0.164 -1.521,-0.105 -2.069,-0.738 -0.761,-0.88 -0.997,-2.287 -0.575,-3.42 0.122,-0.328 0.311,-0.603 0.527,-0.852 -0.675,-0.661 -1.439,-1.691 -1.423,-2.994 0.011,-0.857 0.362,-1.662 1.033,-2.41 -0.309,-0.223 -1.883,-1.476 -1.786,-3.854 0.041,-1.01 0.439,-1.772 0.918,-2.335 -0.988,-0.52 -2,-1.582 -1.832,-3.464 0.112,-1.243 0.555,-2.163 1.316,-2.734 0.636,-0.476 1.321,-0.572 1.768,-0.572 0.181,0 0.323,0.015 0.407,0.028 L -2.09,-7.04 c 0.551,0.044 0.961,0.527 0.917,1.077 -0.044,0.549 -0.511,0.951 -1.077,0.917 L -15.635,-6.13 c -0.006,0 -0.397,-0.058 -0.694,0.175 -0.351,0.275 -0.472,0.861 -0.511,1.303 -0.119,1.32 0.924,1.632 1.191,1.687 1.735,0.224 14.164,1.082 15.087,1.102 0.361,-0.013 0.727,0.158 0.923,0.496 C 0.64,-0.89 0.478,-0.278 0,0"
       style="fill:#ef9645;fill-opacity:1;fill-rule:nonzero;stroke:none"
       id="path26" /></g></svg>