<?xml version="1.0" encoding="UTF-8" standalone="no"?>
<svg
   xmlns:dc="http://purl.org/dc/elements/1.1/"
   xmlns:cc="http://creativecommons.org/ns#"
   xmlns:rdf="http://www.w3.org/1999/02/22-rdf-syntax-ns#"
   xmlns:svg="http://www.w3.org/2000/svg"
   xmlns="http://www.w3.org/2000/svg"
   xmlns:sodipodi="http://sodipodi.sourceforge.net/DTD/sodipodi-0.dtd"
   xmlns:inkscape="http://www.inkscape.org/namespaces/inkscape"
   id="svg2"
   version="1.1"
   xml:space="preserve"
   style="enable-background:new 0 0 45 45;"
   viewBox="0 0 45 45"
   inkscape:version="0.91 r13725"
   sodipodi:docname="farmer.svg"><sodipodi:namedview
     pagecolor="#ffffff"
     bordercolor="#666666"
     borderopacity="1"
     objecttolerance="10"
     gridtolerance="10"
     guidetolerance="10"
     inkscape:pageopacity="0"
     inkscape:pageshadow="2"
     inkscape:window-width="1600"
     inkscape:window-height="836"
     id="namedview18"
     showgrid="false"
     inkscape:zoom="5.2444444"
     inkscape:cx="2.1927966"
     inkscape:cy="22.5"
     inkscape:window-x="0"
     inkscape:window-y="62"
     inkscape:window-maximized="0"
     inkscape:current-layer="svg2" /><metadata
     id="metadata8"><rdf:RDF><cc:Work
         rdf:about=""><dc:format>image/svg+xml</dc:format><dc:type
           rdf:resource="http://purl.org/dc/dcmitype/StillImage" /><dc:title></dc:title></cc:Work></rdf:RDF></metadata><defs
     id="defs6"><clipPath
       clipPathUnits="userSpaceOnUse"
       id="clipPath16"><path
         d="M 0,36 36,36 36,0 0,0 0,36 Z"
         id="path18" /></clipPath></defs><g
     transform="matrix(1.599742,0,0,1.599742,11.000075,-26.988391)"
     id="g3513"><g
       id="g86"
       transform="matrix(1.25,0,0,-1.25,8.75,39.6875)"><path
         d="M 0,0 C 0,0.69 -0.56,1.25 -1.25,1.25 -1.94,1.25 -2.5,0.69 -2.5,0 l 0,-4.25 2.5,0 L 0,0 Z"
         style="fill:#c1694f;fill-opacity:1;fill-rule:nonzero;stroke:none"
         id="path88" /></g><g
       id="g90"
       transform="matrix(1.25,0,0,-1.25,12.503625,28.4375)"><path
         d="m 0,0 c 0,-2.35 -1.904,-4.253 -4.253,-4.253 -2.349,0 -4.253,1.903 -4.253,4.253 0,0.086 -1.497,0.084 -1.497,0 0,-3.176 2.575,-5.75 5.75,-5.75 3.175,0 5.75,2.574 5.75,5.75 C 1.497,0.084 0,0.086 0,0"
         style="fill:#66757f;fill-opacity:1;fill-rule:nonzero;stroke:none"
         id="path92" /></g><g
       id="g94"
       transform="matrix(1.25,0,0,-1.25,1.875,28.4375)"><path
         d="m 0,0 c 0,-0.414 -0.336,-0.75 -0.75,-0.75 -0.414,0 -0.75,0.336 -0.75,0.75 l 0,8.5 c 0,0.414 0.336,0.75 0.75,0.75 C -0.336,9.25 0,8.914 0,8.5 L 0,0 Z"
         style="fill:#66757f;fill-opacity:1;fill-rule:nonzero;stroke:none"
         id="path96" /></g><g
       id="g98"
       transform="matrix(1.25,0,0,-1.25,14.375,28.4375)"><path
         d="m 0,0 c 0,-0.414 -0.336,-0.75 -0.75,-0.75 -0.414,0 -0.75,0.336 -0.75,0.75 l 0,8.5 c 0,0.414 0.336,0.75 0.75,0.75 C -0.336,9.25 0,8.914 0,8.5 L 0,0 Z"
         style="fill:#66757f;fill-opacity:1;fill-rule:nonzero;stroke:none"
         id="path100" /></g><g
       id="g102"
       transform="matrix(1.25,0,0,-1.25,8.125,38.75)"><path
         d="m 0,0 c 0,-0.414 -0.336,-0.75 -0.75,-0.75 -0.414,0 -0.75,0.336 -0.75,0.75 l 0,16.75 c 0,0.414 0.336,0.75 0.75,0.75 C -0.336,17.5 0,17.164 0,16.75 L 0,0 Z"
         style="fill:#66757f;fill-opacity:1;fill-rule:nonzero;stroke:none"
         id="path104" /></g></g></svg>