<?xml version="1.0" encoding="UTF-8" standalone="no"?>
<svg
   xmlns:dc="http://purl.org/dc/elements/1.1/"
   xmlns:cc="http://creativecommons.org/ns#"
   xmlns:rdf="http://www.w3.org/1999/02/22-rdf-syntax-ns#"
   xmlns:svg="http://www.w3.org/2000/svg"
   xmlns="http://www.w3.org/2000/svg"
   xmlns:xlink="http://www.w3.org/1999/xlink"
   xmlns:sodipodi="http://sodipodi.sourceforge.net/DTD/sodipodi-0.dtd"
   xmlns:inkscape="http://www.inkscape.org/namespaces/inkscape"
   viewBox="0 0 45 45"
   style="enable-background:new 0 0 45 45;"
   xml:space="preserve"
   version="1.1"
   id="svg2"
   inkscape:version="0.91 r13725"
   sodipodi:docname="general.svg"><sodipodi:namedview
     pagecolor="#ffffff"
     bordercolor="#666666"
     borderopacity="1"
     objecttolerance="10"
     gridtolerance="10"
     guidetolerance="10"
     inkscape:pageopacity="0"
     inkscape:pageshadow="2"
     inkscape:window-width="1600"
     inkscape:window-height="816"
     id="namedview45"
     showgrid="false"
     inkscape:zoom="22.627417"
     inkscape:cx="16.723028"
     inkscape:cy="36.959673"
     inkscape:window-x="0"
     inkscape:window-y="82"
     inkscape:window-maximized="0"
     inkscape:current-layer="svg2" /><metadata
     id="metadata8"><rdf:RDF><cc:Work
         rdf:about=""><dc:format>image/svg+xml</dc:format><dc:type
           rdf:resource="http://purl.org/dc/dcmitype/StillImage" /><dc:title></dc:title></cc:Work></rdf:RDF></metadata><defs
     id="defs6"><clipPath
       id="clipPath16"
       clipPathUnits="userSpaceOnUse"><path
         id="path18"
         d="M 0,36 36,36 36,0 0,0 0,36 Z" /></clipPath><linearGradient
       id="linearGradient4146"><stop
         id="stop4148"
         offset="0"
         style="stop-color:#e9de94;stop-opacity:1;" /><stop
         id="stop4150"
         offset="1"
         style="stop-color:#e9de94;stop-opacity:0;" /></linearGradient><linearGradient
       id="linearGradient4114"><stop
         style="stop-color:#865100;stop-opacity:1;"
         offset="0"
         id="stop4116" /><stop
         style="stop-color:#865100;stop-opacity:0;"
         offset="1"
         id="stop4118" /></linearGradient><linearGradient
       id="linearGradient10147"><stop
         style="stop-color:#d9bd55;stop-opacity:1;"
         offset="0"
         id="stop10149" /><stop
         style="stop-color:#d9bd55;stop-opacity:0;"
         offset="1"
         id="stop10151" /></linearGradient><linearGradient
       id="linearGradient5140"><stop
         style="stop-color:#c38c00;stop-opacity:1;"
         offset="0"
         id="stop5142" /><stop
         id="stop5150"
         offset="0.25"
         style="stop-color:#e9de94;stop-opacity:1;" /><stop
         style="stop-color:#c38c00;stop-opacity:1;"
         offset="0.5"
         id="stop5152" /><stop
         id="stop5154"
         offset="0.75"
         style="stop-color:#e9de94;stop-opacity:1;" /><stop
         id="stop5148"
         offset="1"
         style="stop-color:#c38c00;stop-opacity:1;" /></linearGradient><linearGradient
       id="linearGradient5180"><stop
         style="stop-color:#824b00;stop-opacity:1;"
         offset="0"
         id="stop5182" /><stop
         style="stop-color:#b07b00;stop-opacity:1;"
         offset="1"
         id="stop5184" /></linearGradient><linearGradient
       id="linearGradient6161"><stop
         style="stop-color:#deab2d;stop-opacity:1;"
         offset="0"
         id="stop6163" /><stop
         style="stop-color:#824b00;stop-opacity:1;"
         offset="1"
         id="stop6165" /></linearGradient><linearGradient
       id="linearGradient12101"><stop
         id="stop12103"
         offset="0"
         style="stop-color:#824b00;stop-opacity:1;" /><stop
         style="stop-color:#deab2d;stop-opacity:1;"
         offset="0.5"
         id="stop12107" /><stop
         id="stop12105"
         offset="1"
         style="stop-color:#824b00;stop-opacity:1;" /></linearGradient><linearGradient
       inkscape:collect="always"
       xlink:href="#linearGradient4116"
       id="linearGradient4478"
       gradientUnits="userSpaceOnUse"
       gradientTransform="matrix(3.40317,0,0,3.40317,-520.779,-1175.3)"
       x1="394.78284"
       y1="476.92804"
       x2="374.45355"
       y2="437.14233" /><linearGradient
       id="linearGradient4116"><stop
         style="stop-color: rgb(119, 119, 119); stop-opacity: 1;"
         offset="0"
         id="stop4118-3" /><stop
         style="stop-color: rgb(255, 255, 255); stop-opacity: 1;"
         offset="0.5"
         id="stop4124" /><stop
         style="stop-color: rgb(119, 119, 119); stop-opacity: 1;"
         offset="1"
         id="stop4120" /></linearGradient><linearGradient
       inkscape:collect="always"
       xlink:href="#linearGradient4116"
       id="linearGradient4475"
       gradientUnits="userSpaceOnUse"
       gradientTransform="matrix(3.40317,0,0,3.40317,-520.779,-1175.3)"
       x1="289.3551"
       y1="417.233"
       x2="352.90753"
       y2="456.47745" /><linearGradient
       inkscape:collect="always"
       xlink:href="#linearGradient4116"
       id="linearGradient4472"
       gradientUnits="userSpaceOnUse"
       gradientTransform="matrix(0.96818,3.26254,-3.26254,0.96818,1875.29,-1410.04)"
       x1="299.14307"
       y1="428.98868"
       x2="376.45349"
       y2="414.41544" /><linearGradient
       inkscape:collect="always"
       xlink:href="#linearGradient4116"
       id="linearGradient4469"
       gradientUnits="userSpaceOnUse"
       gradientTransform="matrix(3.40317,0,0,3.40317,-520.779,-1175.3)"
       x1="412.39908"
       y1="402.39682"
       x2="426.53271"
       y2="433.86307" /><linearGradient
       inkscape:collect="always"
       xlink:href="#linearGradient4116"
       id="linearGradient4466"
       gradientUnits="userSpaceOnUse"
       gradientTransform="matrix(3.40317,0,0,3.40317,-520.779,-1175.3)"
       x1="403.2818"
       y1="433.53098"
       x2="428.90967"
       y2="497.43515" /><linearGradient
       inkscape:collect="always"
       xlink:href="#linearGradient4116"
       id="linearGradient4495"
       gradientUnits="userSpaceOnUse"
       gradientTransform="matrix(3.40317,0,0,3.40317,-1041.29,-806.751)"
       x1="394.78284"
       y1="476.92804"
       x2="374.45355"
       y2="437.14233" /><linearGradient
       inkscape:collect="always"
       xlink:href="#linearGradient4116"
       id="linearGradient4492"
       gradientUnits="userSpaceOnUse"
       gradientTransform="matrix(3.40317,0,0,3.40317,-1041.29,-806.751)"
       x1="289.3551"
       y1="417.233"
       x2="352.90753"
       y2="456.47745" /><linearGradient
       inkscape:collect="always"
       xlink:href="#linearGradient4116"
       id="linearGradient4489"
       gradientUnits="userSpaceOnUse"
       gradientTransform="matrix(0.96818,3.26254,-3.26254,0.96818,1354.79,-1041.49)"
       x1="299.14307"
       y1="428.98868"
       x2="376.45349"
       y2="414.41544" /><linearGradient
       inkscape:collect="always"
       xlink:href="#linearGradient4116"
       id="linearGradient4486"
       gradientUnits="userSpaceOnUse"
       gradientTransform="matrix(3.40317,0,0,3.40317,-1041.29,-806.751)"
       x1="412.39908"
       y1="402.39682"
       x2="426.53271"
       y2="433.86307" /><linearGradient
       inkscape:collect="always"
       xlink:href="#linearGradient4116"
       id="linearGradient4483"
       gradientUnits="userSpaceOnUse"
       gradientTransform="matrix(3.40317,0,0,3.40317,-1041.29,-806.751)"
       x1="403.2818"
       y1="433.53098"
       x2="428.90967"
       y2="497.43515" /><linearGradient
       inkscape:collect="always"
       xlink:href="#linearGradient4116"
       id="linearGradient4512"
       gradientUnits="userSpaceOnUse"
       gradientTransform="matrix(3.40317,0,0,3.40317,-825.874,-216.853)"
       x1="394.78284"
       y1="476.92804"
       x2="374.45355"
       y2="437.14233" /><linearGradient
       inkscape:collect="always"
       xlink:href="#linearGradient4116"
       id="linearGradient4509"
       gradientUnits="userSpaceOnUse"
       gradientTransform="matrix(3.40317,0,0,3.40317,-825.874,-216.853)"
       x1="289.3551"
       y1="417.233"
       x2="352.90753"
       y2="456.47745" /><linearGradient
       inkscape:collect="always"
       xlink:href="#linearGradient4116"
       id="linearGradient4506"
       gradientUnits="userSpaceOnUse"
       gradientTransform="matrix(0.96818,3.26254,-3.26254,0.96818,1570.2,-451.593)"
       x1="299.14307"
       y1="428.98868"
       x2="376.45349"
       y2="414.41544" /><linearGradient
       inkscape:collect="always"
       xlink:href="#linearGradient4116"
       id="linearGradient4503"
       gradientUnits="userSpaceOnUse"
       gradientTransform="matrix(3.40317,0,0,3.40317,-825.874,-216.853)"
       x1="412.39908"
       y1="402.39682"
       x2="426.53271"
       y2="433.86307" /><linearGradient
       inkscape:collect="always"
       xlink:href="#linearGradient4116"
       id="linearGradient4500"
       gradientUnits="userSpaceOnUse"
       gradientTransform="matrix(3.40317,0,0,3.40317,-825.874,-216.853)"
       x1="403.2818"
       y1="433.53098"
       x2="428.90967"
       y2="497.43515" /><linearGradient
       inkscape:collect="always"
       xlink:href="#linearGradient4116"
       id="linearGradient4529"
       gradientUnits="userSpaceOnUse"
       gradientTransform="matrix(3.40317,0,0,3.40317,-195.407,-217.01)"
       x1="394.78284"
       y1="476.92804"
       x2="374.45355"
       y2="437.14233" /><linearGradient
       inkscape:collect="always"
       xlink:href="#linearGradient4116"
       id="linearGradient4526"
       gradientUnits="userSpaceOnUse"
       gradientTransform="matrix(3.40317,0,0,3.40317,-195.407,-217.01)"
       x1="289.3551"
       y1="417.233"
       x2="352.90753"
       y2="456.47745" /><linearGradient
       inkscape:collect="always"
       xlink:href="#linearGradient4116"
       id="linearGradient4523"
       gradientUnits="userSpaceOnUse"
       gradientTransform="matrix(0.96818,3.26254,-3.26254,0.96818,2200.67,-451.75)"
       x1="299.14307"
       y1="428.98868"
       x2="376.45349"
       y2="414.41544" /><linearGradient
       inkscape:collect="always"
       xlink:href="#linearGradient4116"
       id="linearGradient4520"
       gradientUnits="userSpaceOnUse"
       gradientTransform="matrix(3.40317,0,0,3.40317,-195.407,-217.01)"
       x1="412.39908"
       y1="402.39682"
       x2="426.53271"
       y2="433.86307" /><linearGradient
       inkscape:collect="always"
       xlink:href="#linearGradient4116"
       id="linearGradient4517"
       gradientUnits="userSpaceOnUse"
       gradientTransform="matrix(3.40317,0,0,3.40317,-195.407,-217.01)"
       x1="403.2818"
       y1="433.53098"
       x2="428.90967"
       y2="497.43515" /><linearGradient
       inkscape:collect="always"
       xlink:href="#linearGradient4116"
       id="linearGradient4546"
       gradientUnits="userSpaceOnUse"
       gradientTransform="matrix(3.40317,0,0,3.40317,13.12,-807.359)"
       x1="394.78284"
       y1="476.92804"
       x2="374.45355"
       y2="437.14233" /><linearGradient
       inkscape:collect="always"
       xlink:href="#linearGradient4116"
       id="linearGradient4543"
       gradientUnits="userSpaceOnUse"
       gradientTransform="matrix(3.40317,0,0,3.40317,13.12,-807.359)"
       x1="289.3551"
       y1="417.233"
       x2="352.90753"
       y2="456.47745" /><linearGradient
       inkscape:collect="always"
       xlink:href="#linearGradient4116"
       id="linearGradient4540"
       gradientUnits="userSpaceOnUse"
       gradientTransform="matrix(0.96818,3.26254,-3.26254,0.96818,2409.19,-1042.1)"
       x1="299.14307"
       y1="428.98868"
       x2="376.45349"
       y2="414.41544" /><linearGradient
       inkscape:collect="always"
       xlink:href="#linearGradient4116"
       id="linearGradient4537"
       gradientUnits="userSpaceOnUse"
       gradientTransform="matrix(3.40317,0,0,3.40317,13.12,-807.359)"
       x1="412.39908"
       y1="402.39682"
       x2="426.53271"
       y2="433.86307" /><linearGradient
       inkscape:collect="always"
       xlink:href="#linearGradient4116"
       id="linearGradient4534"
       gradientUnits="userSpaceOnUse"
       gradientTransform="matrix(3.40317,0,0,3.40317,13.12,-807.359)"
       x1="403.2818"
       y1="433.53098"
       x2="428.90967"
       y2="497.43515" /></defs><g
     transform="matrix(1.25,0,0,-1.25,0,45)"
     id="g10"><g
       id="g12"><g
         clip-path="url(#clipPath16)"
         id="g14"><g
           transform="translate(27,18)"
           id="g20"><path
             id="path22"
             style="fill:#292f33;fill-opacity:1;fill-rule:nonzero;stroke:none"
             d="m 0,0 c 0,-4.971 -4.029,-5 -9,-5 -4.971,0 -9,0.029 -9,5 0,8.938 4.029,9 9,9 4.971,0 9,-0.101 9,-9" /></g><g
           transform="translate(30,0)"
           id="g24"><path
             id="path26"
             style="fill:#dd2e44;fill-opacity:1;fill-rule:nonzero;stroke:none"
             d="m 0,0 0,1 c 0,3.314 -1.686,6 -5,6 l -14,0 c -3.313,0 -5,-2.686 -5,-6 l 0,-1 24,0 z" /></g><g
           transform="translate(14.6259,6.5439)"
           id="g28"><path
             id="path30"
             style="fill:#ffdc5d;fill-opacity:1;fill-rule:nonzero;stroke:none"
             d="m 0,0 c 1.344,-0.976 2.195,-1.194 3.36,-1.194 1.165,0 2.017,0.218 3.361,1.194 l 0,2.938 L 0,2.938 0,0 Z" /></g><g
           transform="translate(14.6198,8.1841)"
           id="g32"><path
             id="path34"
             style="fill:#f9ca55;fill-opacity:1;fill-rule:nonzero;stroke:none"
             d="m 0,0 c 0.938,-1.059 2.1,-1.345 3.364,-1.345 1.263,0 2.425,0.287 3.363,1.345 l 0,2.691 L 0,2.691 0,0 Z" /></g><g
           transform="translate(12.9339,15.9203)"
           id="g36"><path
             id="path38"
             style="fill:#ffdc5d;fill-opacity:1;fill-rule:nonzero;stroke:none"
             d="m 0,0 c 0,-1.116 -0.565,-2.021 -1.263,-2.021 -0.698,0 -1.263,0.905 -1.263,2.021 0,1.116 0.565,2.021 1.263,2.021 C -0.565,2.021 0,1.116 0,0" /></g><g
           transform="translate(25.5654,15.9203)"
           id="g40"><path
             id="path42"
             style="fill:#ffdc5d;fill-opacity:1;fill-rule:nonzero;stroke:none"
             d="m 0,0 c 0,-1.116 -0.565,-2.021 -1.263,-2.021 -0.698,0 -1.263,0.905 -1.263,2.021 0,1.116 0.565,2.021 1.263,2.021 C -0.565,2.021 0,1.116 0,0" /></g><g
           transform="translate(11.4181,15.1308)"
           id="g44"><path
             id="path46"
             style="fill:#ffdc5d;fill-opacity:1;fill-rule:nonzero;stroke:none"
             d="m 0,0 c 0,4.308 2.941,7.8 6.568,7.8 3.628,0 6.569,-3.492 6.569,-7.8 0,-4.308 -2.941,-7.8 -6.569,-7.8 C 2.941,-7.8 0,-4.308 0,0" /></g><g
           transform="translate(17.9865,9.8571)"
           id="g48"><path
             id="path50"
             style="fill:#c1694f;fill-opacity:1;fill-rule:nonzero;stroke:none"
             d="m 0,0 c -2.123,0 -2.774,0.544 -2.884,0.653 -0.197,0.198 -0.197,0.517 0,0.715 0.192,0.191 0.498,0.197 0.696,0.018 C -2.148,1.357 -1.632,1.011 0,1.011 1.695,1.011 2.186,1.384 2.191,1.388 2.388,1.584 2.697,1.575 2.894,1.378 3.092,1.18 3.081,0.851 2.884,0.653 2.775,0.544 2.123,0 0,0" /></g><g
           transform="translate(14.9036,15.0998)"
           id="g52"><path
             id="path54"
             style="fill:#662113;fill-opacity:1;fill-rule:nonzero;stroke:none"
             d="m 0,0 0,0 c -0.424,0 -0.771,0.347 -0.771,0.771 l 0,0.77 c 0,0.424 0.347,0.771 0.771,0.771 l 0,0 c 0.424,0 0.771,-0.347 0.771,-0.771 l 0,-0.77 C 0.771,0.347 0.424,0 0,0" /></g><g
           transform="translate(21.0694,15.0998)"
           id="g56"><path
             id="path58"
             style="fill:#662113;fill-opacity:1;fill-rule:nonzero;stroke:none"
             d="m 0,0 0,0 c -0.424,0 -0.771,0.347 -0.771,0.771 l 0,0.77 c 0,0.424 0.347,0.771 0.771,0.771 l 0,0 c 0.424,0 0.771,-0.347 0.771,-0.771 l 0,-0.77 C 0.771,0.347 0.424,0 0,0" /></g><g
           transform="translate(18.5646,12.9803)"
           id="g60"><path
             id="path62"
             style="fill:#c1694f;fill-opacity:1;fill-rule:nonzero;stroke:none"
             d="m 0,0 -1.156,0 c -0.318,0 -0.578,0.26 -0.578,0.578 l 0,0 c 0,0.318 0.26,0.578 0.578,0.578 l 1.156,0 c 0.318,0 0.578,-0.26 0.578,-0.578 l 0,0 C 0.578,0.26 0.318,0 0,0" /></g><g
           transform="translate(12.5782,5.5392)"
           id="g64"><path
             id="path66"
             style="fill:#292f33;fill-opacity:1;fill-rule:nonzero;stroke:none"
             d="m 0,0 -4.653,-0.737 c -0.272,-0.043 -0.529,0.144 -0.572,0.416 l -0.157,0.987 c -0.043,0.272 0.144,0.529 0.416,0.572 l 4.653,0.737 C -0.041,2.018 0.216,1.831 0.259,1.56 L 0.416,0.572 C 0.459,0.3 0.272,0.043 0,0" /></g><g
           transform="translate(23.4479,5.5392)"
           id="g68"><path
             id="path70"
             style="fill:#292f33;fill-opacity:1;fill-rule:nonzero;stroke:none"
             d="m 0,0 4.653,-0.737 c 0.272,-0.043 0.529,0.144 0.572,0.416 L 5.382,0.666 C 5.425,0.938 5.238,1.195 4.966,1.238 L 0.313,1.975 C 0.041,2.018 -0.216,1.831 -0.259,1.56 L -0.416,0.572 C -0.459,0.3 -0.272,0.043 0,0" /></g><g
           transform="translate(11.875,18)"
           id="g72"><path
             id="path74"
             style="fill:#99aab5;fill-opacity:1;fill-rule:nonzero;stroke:none"
             d="m 0,0 c 0,0 -0.174,-9 6.113,-9 6.287,0 6.137,9 6.137,9 l 0.875,0 c 0,0 -0.307,-10 -7,-10 -6.693,0 -7,10 -7,10 L 0,0 Z" /></g><g
           transform="translate(26,18)"
           id="g76"><path
             id="path78"
             style="fill:#292f33;fill-opacity:1;fill-rule:nonzero;stroke:none"
             d="m 0,0 -16,0 c -0.55,0 -1,0.45 -1,1 l 0,11 c 0,3.3 2.7,6 6,6 l 6,0 c 3.3,0 6,-2.7 6,-6 L 1,1 C 1,0.45 0.55,0 0,0" /></g><path
           id="path80"
           style="fill:#f5f8fa;fill-opacity:1;fill-rule:nonzero;stroke:none"
           d="m 18.5,0 -1,0 0,5 1,0 0,-5 z" /><g
           transform="translate(14.6198,8.1841)"
           id="g82"><path
             id="path84"
             style="fill:#292f33;fill-opacity:1;fill-rule:nonzero;stroke:none"
             d="m 0,0 c 0,0 -0.62,0.127 -0.62,-1.184 0,-1.311 1.888,-3 4,-3 l 0,2 C 2.236,-2.184 0,-1.576 0,0" /></g><g
           transform="translate(21.3802,8.1841)"
           id="g86"><path
             id="path88"
             style="fill:#292f33;fill-opacity:1;fill-rule:nonzero;stroke:none"
             d="m 0,0 c 0,0 0.62,0.127 0.62,-1.184 0,-1.311 -1.888,-3 -4,-3 l 0,2 C -2.236,-2.184 0,-1.576 0,0" /></g></g></g></g><g
     transform="matrix(-0.01122736,0,0,0.01122736,31.868585,2.5662424)"
     id="g3973"><g
       id="g5058"><path
         inkscape:connector-curvature="0"
         id="path3145"
         style="fill:#ffffff;fill-opacity:1;fill-rule:evenodd;stroke:none;stroke-width:2;stroke-linecap:butt;stroke-linejoin:miter;stroke-miterlimit:4;stroke-dasharray:none;stroke-opacity:1"
         d="m 757.47575,219.74634 77.35657,-214.2133 77.73644,214.5624 223.96134,0.8679 L 961.11793,352.61932 1043.1892,576.93463 835.3656,433.20445 632.94349,577.15346 711.72544,354.91408 525.90922,220.956 757.47575,219.74634 Z" /><path
         inkscape:connector-curvature="0"
         id="path3143"
         style="fill:url(#linearGradient4478);fill-opacity:1;fill-rule:evenodd;stroke:none;stroke-width:2;stroke-linecap:butt;stroke-linejoin:miter;stroke-miterlimit:4;stroke-dasharray:none;stroke-opacity:1"
         d="M 835.3656,433.20445 632.94349,577.15346 834.55047,312.53564 835.3656,433.20445 Z" /><path
         inkscape:connector-curvature="0"
         id="path4126"
         style="fill:url(#linearGradient4475);fill-opacity:1;fill-rule:evenodd;stroke:none;stroke-width:2;stroke-linecap:butt;stroke-linejoin:miter;stroke-miterlimit:4;stroke-dasharray:none;stroke-opacity:1"
         d="M 834.53887,312.52253 711.72544,354.91408 525.90922,220.956 834.53887,312.52253 Z" /><path
         inkscape:connector-curvature="0"
         id="path5109"
         style="fill:url(#linearGradient4472);fill-opacity:1;fill-rule:evenodd;stroke:none;stroke-width:2;stroke-linecap:butt;stroke-linejoin:miter;stroke-miterlimit:4;stroke-dasharray:none;stroke-opacity:1"
         d="m 834.54098,312.55108 -77.70645,-93.12919 77.26064,-211.78151 0.44581,304.9107 z" /><path
         inkscape:connector-curvature="0"
         id="path5113"
         style="fill:url(#linearGradient4469);fill-opacity:1;fill-rule:evenodd;stroke:none;stroke-width:2;stroke-linecap:butt;stroke-linejoin:miter;stroke-miterlimit:4;stroke-dasharray:none;stroke-opacity:1"
         d="m 912.56876,220.09544 223.96134,0.8679 -301.97455,91.58488 78.01321,-92.45278 z" /><path
         inkscape:connector-curvature="0"
         id="path5123"
         style="fill:url(#linearGradient4466);fill-opacity:1;fill-rule:evenodd;stroke:none;stroke-width:2;stroke-linecap:butt;stroke-linejoin:miter;stroke-miterlimit:4;stroke-dasharray:none;stroke-opacity:1"
         d="m 961.11793,352.61932 82.07127,224.31531 -208.6345,-264.3698 126.56323,40.05449 z" /><path
         inkscape:connector-curvature="0"
         id="path2170"
         style="fill:none;fill-rule:evenodd;stroke:#000000;stroke-width:6.8063302;stroke-linecap:butt;stroke-linejoin:miter;stroke-miterlimit:4;stroke-dasharray:none;stroke-opacity:1"
         d="m 757.47575,219.74634 77.35657,-214.2133 77.73644,214.5624 223.96134,0.8679 L 961.11793,352.61932 1043.1892,576.93463 835.3656,433.20445 632.94349,577.15346 711.72544,354.91408 525.90922,220.956 757.47575,219.74634 Z" /></g><g
       id="g5076"><path
         inkscape:connector-curvature="0"
         id="path2178"
         style="fill:#ffffff;fill-opacity:1;fill-rule:evenodd;stroke:none;stroke-width:2;stroke-linecap:butt;stroke-linejoin:miter;stroke-miterlimit:4;stroke-dasharray:none;stroke-opacity:1"
         d="m 236.96975,588.29134 77.35657,-214.2133 77.73644,214.5624 223.96137,0.8679 -175.4122,131.65598 82.07129,224.31531 L 314.8596,801.74945 112.43749,945.69846 191.21944,723.45908 5.403217,589.501 236.96975,588.29134 Z" /><path
         inkscape:connector-curvature="0"
         id="path2180"
         style="fill:url(#linearGradient4495);fill-opacity:1;fill-rule:evenodd;stroke:none;stroke-width:2;stroke-linecap:butt;stroke-linejoin:miter;stroke-miterlimit:4;stroke-dasharray:none;stroke-opacity:1"
         d="M 314.8596,801.74945 112.43749,945.69846 314.04447,681.08064 314.8596,801.74945 Z" /><path
         inkscape:connector-curvature="0"
         id="path2182"
         style="fill:url(#linearGradient4492);fill-opacity:1;fill-rule:evenodd;stroke:none;stroke-width:2;stroke-linecap:butt;stroke-linejoin:miter;stroke-miterlimit:4;stroke-dasharray:none;stroke-opacity:1"
         d="M 314.03287,681.06753 191.21944,723.45908 5.403217,589.501 314.03287,681.06753 Z" /><path
         inkscape:connector-curvature="0"
         id="path2184"
         style="fill:url(#linearGradient4489);fill-opacity:1;fill-rule:evenodd;stroke:none;stroke-width:2;stroke-linecap:butt;stroke-linejoin:miter;stroke-miterlimit:4;stroke-dasharray:none;stroke-opacity:1"
         d="m 314.03498,681.09608 -77.70645,-93.12919 77.26064,-211.78151 0.44581,304.9107 z" /><path
         inkscape:connector-curvature="0"
         id="path2186"
         style="fill:url(#linearGradient4486);fill-opacity:1;fill-rule:evenodd;stroke:none;stroke-width:2;stroke-linecap:butt;stroke-linejoin:miter;stroke-miterlimit:4;stroke-dasharray:none;stroke-opacity:1"
         d="m 392.06276,588.64044 223.96137,0.8679 -301.97458,91.58488 78.01321,-92.45278 z" /><path
         inkscape:connector-curvature="0"
         id="path2188"
         style="fill:url(#linearGradient4483);fill-opacity:1;fill-rule:evenodd;stroke:none;stroke-width:2;stroke-linecap:butt;stroke-linejoin:miter;stroke-miterlimit:4;stroke-dasharray:none;stroke-opacity:1"
         d="M 440.61193,721.16432 522.68322,945.47963 314.0487,681.10983 440.61193,721.16432 Z" /><path
         inkscape:connector-curvature="0"
         id="path2190"
         style="fill:none;fill-rule:evenodd;stroke:#000000;stroke-width:6.8063302;stroke-linecap:butt;stroke-linejoin:miter;stroke-miterlimit:4;stroke-dasharray:none;stroke-opacity:1"
         d="m 236.96975,588.29134 77.35657,-214.2133 77.73644,214.5624 223.96137,0.8679 -175.4122,131.65598 82.07129,224.31531 L 314.8596,801.74945 112.43749,945.69846 191.21944,723.45908 5.403217,589.501 236.96975,588.29134 Z" /></g><g
       id="g5085"><path
         inkscape:connector-curvature="0"
         id="path2222"
         style="fill:#ffffff;fill-opacity:1;fill-rule:evenodd;stroke:none;stroke-width:2;stroke-linecap:butt;stroke-linejoin:miter;stroke-miterlimit:4;stroke-dasharray:none;stroke-opacity:1"
         d="m 452.38075,1178.1893 77.35657,-214.21326 77.73644,214.56236 223.96137,0.8679 -175.4122,131.656 82.07129,224.3153 -207.82362,-143.7302 -202.42211,143.9491 78.78195,-222.2394 -185.81622,-133.9581 231.56653,-1.2097 z" /><path
         inkscape:connector-curvature="0"
         id="path2224"
         style="fill:url(#linearGradient4512);fill-opacity:1;fill-rule:evenodd;stroke:none;stroke-width:2;stroke-linecap:butt;stroke-linejoin:miter;stroke-miterlimit:4;stroke-dasharray:none;stroke-opacity:1"
         d="m 530.2706,1391.6474 -202.42211,143.9491 201.60698,-264.6179 0.81513,120.6688 z" /><path
         inkscape:connector-curvature="0"
         id="path2226"
         style="fill:url(#linearGradient4509);fill-opacity:1;fill-rule:evenodd;stroke:none;stroke-width:2;stroke-linecap:butt;stroke-linejoin:miter;stroke-miterlimit:4;stroke-dasharray:none;stroke-opacity:1"
         d="m 529.44387,1270.9655 -122.81343,42.3916 -185.81622,-133.9581 308.62965,91.5665 z" /><path
         inkscape:connector-curvature="0"
         id="path2228"
         style="fill:url(#linearGradient4506);fill-opacity:1;fill-rule:evenodd;stroke:none;stroke-width:2;stroke-linecap:butt;stroke-linejoin:miter;stroke-miterlimit:4;stroke-dasharray:none;stroke-opacity:1"
         d="m 529.44598,1270.9941 -77.70645,-93.1292 77.26064,-211.78152 0.44581,304.91072 z" /><path
         inkscape:connector-curvature="0"
         id="path2230"
         style="fill:url(#linearGradient4503);fill-opacity:1;fill-rule:evenodd;stroke:none;stroke-width:2;stroke-linecap:butt;stroke-linejoin:miter;stroke-miterlimit:4;stroke-dasharray:none;stroke-opacity:1"
         d="m 607.47376,1178.5384 223.96137,0.8679 -301.97458,91.5849 78.01321,-92.4528 z" /><path
         inkscape:connector-curvature="0"
         id="path2232"
         style="fill:url(#linearGradient4500);fill-opacity:1;fill-rule:evenodd;stroke:none;stroke-width:2;stroke-linecap:butt;stroke-linejoin:miter;stroke-miterlimit:4;stroke-dasharray:none;stroke-opacity:1"
         d="m 656.02293,1311.0623 82.07129,224.3153 -208.63452,-264.3698 126.56323,40.0545 z" /><path
         inkscape:connector-curvature="0"
         id="path2234"
         style="fill:none;fill-rule:evenodd;stroke:#000000;stroke-width:6.8063302;stroke-linecap:butt;stroke-linejoin:miter;stroke-miterlimit:4;stroke-dasharray:none;stroke-opacity:1"
         d="m 452.38075,1178.1893 77.35657,-214.21326 77.73644,214.56236 223.96137,0.8679 -175.4122,131.656 82.07129,224.3153 -207.82362,-143.7302 -202.42211,143.9491 78.78195,-222.2394 -185.81622,-133.9581 231.56653,-1.2097 z" /></g><g
       id="g5094"><path
         inkscape:connector-curvature="0"
         id="path2248"
         style="fill:#ffffff;fill-opacity:1;fill-rule:evenodd;stroke:none;stroke-width:2;stroke-linecap:butt;stroke-linejoin:miter;stroke-miterlimit:4;stroke-dasharray:none;stroke-opacity:1"
         d="m 1082.8477,1178.0323 77.3566,-214.21326 77.7365,214.56236 223.9613,0.8679 -175.4122,131.656 82.0713,224.3153 -207.8236,-143.7302 -202.42211,143.9491 78.78191,-222.2394 -185.81618,-133.9581 231.56648,-1.2097 z" /><path
         inkscape:connector-curvature="0"
         id="path2250"
         style="fill:url(#linearGradient4529);fill-opacity:1;fill-rule:evenodd;stroke:none;stroke-width:2;stroke-linecap:butt;stroke-linejoin:miter;stroke-miterlimit:4;stroke-dasharray:none;stroke-opacity:1"
         d="m 1160.7376,1391.4904 -202.42211,143.9491 201.60701,-264.6179 0.8151,120.6688 z" /><path
         inkscape:connector-curvature="0"
         id="path2252"
         style="fill:url(#linearGradient4526);fill-opacity:1;fill-rule:evenodd;stroke:none;stroke-width:2;stroke-linecap:butt;stroke-linejoin:miter;stroke-miterlimit:4;stroke-dasharray:none;stroke-opacity:1"
         d="m 1159.9109,1270.8085 -122.8135,42.3916 -185.81618,-133.9581 308.62968,91.5665 z" /><path
         inkscape:connector-curvature="0"
         id="path2254"
         style="fill:url(#linearGradient4523);fill-opacity:1;fill-rule:evenodd;stroke:none;stroke-width:2;stroke-linecap:butt;stroke-linejoin:miter;stroke-miterlimit:4;stroke-dasharray:none;stroke-opacity:1"
         d="m 1159.913,1270.8371 -77.7065,-93.1292 77.2607,-211.78152 0.4458,304.91072 z" /><path
         inkscape:connector-curvature="0"
         id="path2256"
         style="fill:url(#linearGradient4520);fill-opacity:1;fill-rule:evenodd;stroke:none;stroke-width:2;stroke-linecap:butt;stroke-linejoin:miter;stroke-miterlimit:4;stroke-dasharray:none;stroke-opacity:1"
         d="m 1237.9408,1178.3814 223.9613,0.8679 -301.9746,91.5849 78.0133,-92.4528 z" /><path
         inkscape:connector-curvature="0"
         id="path2258"
         style="fill:url(#linearGradient4517);fill-opacity:1;fill-rule:evenodd;stroke:none;stroke-width:2;stroke-linecap:butt;stroke-linejoin:miter;stroke-miterlimit:4;stroke-dasharray:none;stroke-opacity:1"
         d="m 1286.4899,1310.9053 82.0713,224.3153 -208.6345,-264.3698 126.5632,40.0545 z" /><path
         inkscape:connector-curvature="0"
         id="path2260"
         style="fill:none;fill-rule:evenodd;stroke:#000000;stroke-width:6.8063302;stroke-linecap:butt;stroke-linejoin:miter;stroke-miterlimit:4;stroke-dasharray:none;stroke-opacity:1"
         d="m 1082.8477,1178.0323 77.3566,-214.21326 77.7365,214.56236 223.9613,0.8679 -175.4122,131.656 82.0713,224.3153 -207.8236,-143.7302 -202.42211,143.9491 78.78191,-222.2394 -185.81618,-133.9581 231.56648,-1.2097 z" /></g><g
       id="g5067"><path
         inkscape:connector-curvature="0"
         id="path2274"
         style="fill:#ffffff;fill-opacity:1;fill-rule:evenodd;stroke:none;stroke-width:2;stroke-linecap:butt;stroke-linejoin:miter;stroke-miterlimit:4;stroke-dasharray:none;stroke-opacity:1"
         d="m 1291.3747,587.68334 77.3566,-214.2133 77.7365,214.5624 223.9613,0.8679 -175.4122,131.65598 82.0713,224.31531 -207.8236,-143.73018 -202.4221,143.94901 78.7819,-222.23938 -185.8162,-133.95808 231.5665,-1.20966 z" /><path
         inkscape:connector-curvature="0"
         id="path2276"
         style="fill:url(#linearGradient4546);fill-opacity:1;fill-rule:evenodd;stroke:none;stroke-width:2;stroke-linecap:butt;stroke-linejoin:miter;stroke-miterlimit:4;stroke-dasharray:none;stroke-opacity:1"
         d="m 1369.2646,801.14145 -202.4221,143.94901 201.607,-264.61782 0.8151,120.66881 z" /><path
         inkscape:connector-curvature="0"
         id="path2278"
         style="fill:url(#linearGradient4543);fill-opacity:1;fill-rule:evenodd;stroke:none;stroke-width:2;stroke-linecap:butt;stroke-linejoin:miter;stroke-miterlimit:4;stroke-dasharray:none;stroke-opacity:1"
         d="M 1368.4379,680.45953 1245.6244,722.85108 1059.8082,588.893 1368.4379,680.45953 Z" /><path
         inkscape:connector-curvature="0"
         id="path2280"
         style="fill:url(#linearGradient4540);fill-opacity:1;fill-rule:evenodd;stroke:none;stroke-width:2;stroke-linecap:butt;stroke-linejoin:miter;stroke-miterlimit:4;stroke-dasharray:none;stroke-opacity:1"
         d="m 1368.44,680.48808 -77.7065,-93.12919 77.2607,-211.78151 0.4458,304.9107 z" /><path
         inkscape:connector-curvature="0"
         id="path2282"
         style="fill:url(#linearGradient4537);fill-opacity:1;fill-rule:evenodd;stroke:none;stroke-width:2;stroke-linecap:butt;stroke-linejoin:miter;stroke-miterlimit:4;stroke-dasharray:none;stroke-opacity:1"
         d="m 1446.4678,588.03244 223.9613,0.8679 -301.9746,91.58488 78.0133,-92.45278 z" /><path
         inkscape:connector-curvature="0"
         id="path2284"
         style="fill:url(#linearGradient4534);fill-opacity:1;fill-rule:evenodd;stroke:none;stroke-width:2;stroke-linecap:butt;stroke-linejoin:miter;stroke-miterlimit:4;stroke-dasharray:none;stroke-opacity:1"
         d="m 1495.0169,720.55632 82.0713,224.31531 -208.6345,-264.3698 126.5632,40.05449 z" /><path
         inkscape:connector-curvature="0"
         id="path2286"
         style="fill:none;fill-rule:evenodd;stroke:#000000;stroke-width:6.8063302;stroke-linecap:butt;stroke-linejoin:miter;stroke-miterlimit:4;stroke-dasharray:none;stroke-opacity:1"
         d="m 1291.3747,587.68334 77.3566,-214.2133 77.7365,214.5624 223.9613,0.8679 -175.4122,131.65598 82.0713,224.31531 -207.8236,-143.73018 -202.4221,143.94901 78.7819,-222.23938 -185.8162,-133.95808 231.5665,-1.20966 z" /></g></g></svg>