<?xml version="1.0" encoding="UTF-8" standalone="no"?>
<svg
   xmlns:dc="http://purl.org/dc/elements/1.1/"
   xmlns:cc="http://creativecommons.org/ns#"
   xmlns:rdf="http://www.w3.org/1999/02/22-rdf-syntax-ns#"
   xmlns:svg="http://www.w3.org/2000/svg"
   xmlns="http://www.w3.org/2000/svg"
   xmlns:sodipodi="http://sodipodi.sourceforge.net/DTD/sodipodi-0.dtd"
   xmlns:inkscape="http://www.inkscape.org/namespaces/inkscape"
   id="svg2"
   version="1.1"
   xml:space="preserve"
   style="enable-background:new 0 0 45 45;"
   viewBox="0 0 45 45"
   inkscape:version="0.91 r13725"
   sodipodi:docname="hunter.svg"><sodipodi:namedview
     pagecolor="#ffffff"
     bordercolor="#666666"
     borderopacity="1"
     objecttolerance="10"
     gridtolerance="10"
     guidetolerance="10"
     inkscape:pageopacity="0"
     inkscape:pageshadow="2"
     inkscape:window-width="1600"
     inkscape:window-height="836"
     id="namedview36"
     showgrid="false"
     inkscape:zoom="5.2444444"
     inkscape:cx="2.1927966"
     inkscape:cy="22.5"
     inkscape:window-x="0"
     inkscape:window-y="62"
     inkscape:window-maximized="0"
     inkscape:current-layer="svg2" /><metadata
     id="metadata8"><rdf:RDF><cc:Work
         rdf:about=""><dc:format>image/svg+xml</dc:format><dc:type
           rdf:resource="http://purl.org/dc/dcmitype/StillImage" /><dc:title></dc:title></cc:Work></rdf:RDF></metadata><defs
     id="defs6"><clipPath
       clipPathUnits="userSpaceOnUse"
       id="clipPath16"><path
         d="M 0,36 36,36 36,0 0,0 0,36 Z"
         id="path18" /></clipPath></defs><g
     id="g10"
     transform="matrix(1.25,0,0,-1.25,0,45)"><g
       id="g12"><g
         id="g14"
         clip-path="url(#clipPath16)"><g
           id="g20"
           transform="translate(21.2793,31.7202)"><path
             d="m 0,0 c -8.999,0 -10.5,-1.5 -13,-4 -2.5,-2.5 -4,-4 -4,-13 0,-11.18 -2,-14 -1,-14 1,0 3,2 3,4 0,2 -1.999,13 5.001,20 L -10,-7 c 7,7 18,5 20,5 2,0 4,2 4,3 C 14,2 11.181,0 0,0"
             style="fill:#c1694f;fill-opacity:1;fill-rule:nonzero;stroke:none"
             id="path22" /></g><g
           id="g24"
           transform="translate(29.5,6.2207)"><path
             d="m 0,0 c 0,-0.276 -0.224,-0.5 -0.5,-0.5 l -25.22,0 c -0.277,0 -0.5,0.224 -0.5,0.5 0,0.276 0.223,0.5 0.5,0.5 l 25.22,0 C -0.224,0.5 0,0.276 0,0"
             style="fill:#d99e82;fill-opacity:1;fill-rule:nonzero;stroke:none"
             id="path26" /></g><g
           id="g28"
           transform="translate(29.7793,6.5)"><path
             d="m 0,0 c -0.277,0 -0.5,0.225 -0.5,0.5 l 0,25.221 c 0,0.277 0.223,0.5 0.5,0.5 0.275,0 0.5,-0.224 0.5,-0.5 L 0.5,0.5 C 0.5,0.225 0.275,0 0,0"
             style="fill:#d99e82;fill-opacity:1;fill-rule:nonzero;stroke:none"
             id="path30" /></g><g
           id="g32"
           transform="translate(0,36)"><path
             d="M 0,0 2.793,-8.52 4.93,-4.955 8.45,-2.863 0,0 Z"
             style="fill:#99aab5;fill-opacity:1;fill-rule:nonzero;stroke:none"
             id="path34" /></g><g
           id="g36"
           transform="translate(26.0869,8.6074)"><path
             d="m 0,0 c 0.364,-1.896 0,-3.564 -0.812,-3.719 -0.814,-0.156 -1.77,1.256 -2.133,3.155 C -3.31,1.334 -2.946,3 -2.133,3.156 -1.319,3.313 -0.364,1.898 0,0"
             style="fill:#dd2e44;fill-opacity:1;fill-rule:nonzero;stroke:none"
             id="path38" /></g><g
           id="g40"
           transform="translate(26.5684,7.5352)"><path
             d="M 0,0 C 0.365,-1.898 0,-3.564 -0.812,-3.721 -1.626,-3.877 -2.581,-2.463 -2.944,-0.566 -3.31,1.334 -2.945,3 -2.133,3.154 -1.319,3.311 -0.363,1.898 0,0"
             style="fill:#f4900c;fill-opacity:1;fill-rule:nonzero;stroke:none"
             id="path42" /></g><g
           id="g44"
           transform="translate(27.958,6.1465)"><path
             d="m 0,0 c 0.364,-1.898 0,-3.564 -0.812,-3.721 -0.814,-0.156 -1.77,1.256 -2.133,3.155 -0.365,1.898 0,3.564 0.812,3.72 C -1.319,3.311 -0.363,1.898 0,0"
             style="fill:#a0041e;fill-opacity:1;fill-rule:nonzero;stroke:none"
             id="path46" /></g><g
           id="g48"
           transform="translate(29.3721,4.7324)"><path
             d="m 0,0 c 0.365,-1.898 0,-3.566 -0.812,-3.721 -0.814,-0.156 -1.77,1.256 -2.133,3.155 -0.365,1.898 0,3.564 0.812,3.72 C -1.319,3.311 -0.363,1.896 0,0"
             style="fill:#dd2e44;fill-opacity:1;fill-rule:nonzero;stroke:none"
             id="path50" /></g><g
           id="g52"
           transform="translate(27.3926,9.9131)"><path
             d="M 0,0 C 1.897,-0.364 3.564,0 3.719,0.812 3.875,1.626 2.463,2.582 0.564,2.945 -1.334,3.31 -3,2.946 -3.156,2.133 -3.313,1.319 -1.898,0.364 0,0"
             style="fill:#dd2e44;fill-opacity:1;fill-rule:nonzero;stroke:none"
             id="path54" /></g><g
           id="g56"
           transform="translate(28.4648,9.4316)"><path
             d="M 0,0 C 1.898,-0.365 3.564,0 3.721,0.812 3.877,1.626 2.463,2.581 0.566,2.944 -1.334,3.31 -3,2.945 -3.154,2.133 -3.311,1.319 -1.898,0.363 0,0"
             style="fill:#f4900c;fill-opacity:1;fill-rule:nonzero;stroke:none"
             id="path58" /></g><g
           id="g60"
           transform="translate(29.8535,8.042)"><path
             d="M 0,0 C 1.898,-0.364 3.564,0 3.721,0.812 3.877,1.626 2.465,2.582 0.566,2.945 -1.332,3.31 -2.998,2.945 -3.154,2.133 -3.311,1.319 -1.898,0.363 0,0"
             style="fill:#a0041e;fill-opacity:1;fill-rule:nonzero;stroke:none"
             id="path62" /></g><g
           id="g64"
           transform="translate(31.2676,6.6279)"><path
             d="M 0,0 C 1.898,-0.365 3.566,0 3.721,0.812 3.877,1.626 2.465,2.582 0.566,2.945 -1.332,3.31 -2.998,2.945 -3.154,2.133 -3.311,1.319 -1.896,0.363 0,0"
             style="fill:#dd2e44;fill-opacity:1;fill-rule:nonzero;stroke:none"
             id="path66" /></g><g
           id="g68"
           transform="translate(30.3848,7)"><path
             d="m 0,0 c 0.382,-0.382 0.382,-1.002 0,-1.385 -0.383,-0.382 -1.003,-0.382 -1.385,0 L -26.249,23.48 c -0.382,0.382 -0.381,1.002 0,1.384 0.382,0.382 1.002,0.382 1.384,0 L 0,0 Z"
             style="fill:#ccd6dd;fill-opacity:1;fill-rule:nonzero;stroke:none"
             id="path70" /></g></g></g></g></svg>