<?xml version="1.0" encoding="UTF-8" standalone="no"?>
<svg
   xmlns:dc="http://purl.org/dc/elements/1.1/"
   xmlns:cc="http://creativecommons.org/ns#"
   xmlns:rdf="http://www.w3.org/1999/02/22-rdf-syntax-ns#"
   xmlns:svg="http://www.w3.org/2000/svg"
   xmlns="http://www.w3.org/2000/svg"
   xmlns:sodipodi="http://sodipodi.sourceforge.net/DTD/sodipodi-0.dtd"
   xmlns:inkscape="http://www.inkscape.org/namespaces/inkscape"
   xml:space="preserve"
   style="enable-background:new 0 0 511.998 511.998;"
   viewBox="0 0 511.998 511.998"
   y="0px"
   x="0px"
   id="Layer_1"
   version="1.1"
   inkscape:version="0.91 r13725"
   sodipodi:docname="lumberjack.svg"><sodipodi:namedview
     pagecolor="#ffffff"
     bordercolor="#666666"
     borderopacity="1"
     objecttolerance="10"
     gridtolerance="10"
     guidetolerance="10"
     inkscape:pageopacity="0"
     inkscape:pageshadow="2"
     inkscape:window-width="1600"
     inkscape:window-height="836"
     id="namedview27"
     showgrid="false"
     inkscape:zoom="0.46093931"
     inkscape:cx="-206.10088"
     inkscape:cy="255.99899"
     inkscape:window-x="0"
     inkscape:window-y="62"
     inkscape:window-maximized="0"
     inkscape:current-layer="Layer_1" /><metadata
     id="metadata49"><rdf:RDF><cc:Work
         rdf:about=""><dc:format>image/svg+xml</dc:format><dc:type
           rdf:resource="http://purl.org/dc/dcmitype/StillImage" /><dc:title></dc:title></cc:Work></rdf:RDF></metadata><defs
     id="defs47" /><g
     transform="matrix(-1,0,0,1,511.99921,0)"
     id="g3377"><path
       style="fill:#806749"
       d="m 432.339,47.174 c -19.585,-19.585 -51.337,-19.585 -70.922,0 C 350.971,57.619 18.811,389.78 14.689,393.902 c -19.585,19.585 -19.585,51.337 0,70.922 19.585,19.585 51.337,19.585 70.922,0 2.68,-2.68 338.395,-338.395 346.728,-346.728 19.584,-19.585 19.584,-51.337 0,-70.922 z"
       id="path3" /><path
       style="fill:#5f4d37"
       d="m 85.611,464.824 c 2.68,-2.68 338.395,-338.395 346.728,-346.728 19.585,-19.585 19.585,-51.337 0,-70.922 l -417.65,417.65 c 19.585,19.584 51.337,19.584 70.922,0 z"
       id="path5" /><path
       style="fill:#ff5023"
       d="M 334.275,83.959 C 319.093,72.415 304.433,59.992 290.311,46.666 283.739,40.463 273.42,40.609 267.024,47.005 l -94.901,94.901 c -6.395,6.395 -6.542,16.714 -0.339,23.287 56.061,59.41 96.136,128.321 122.066,205.514 51.082,-7.191 99.073,-30.649 135.199,-66.775 36.405,-36.404 59.666,-84.391 66.797,-135.198 C 436.991,148.956 382.953,120.973 334.275,83.959 Z"
       id="path7" /><path
       style="fill:#cd2a00"
       d="m 429.049,303.93 c 0.084,-0.084 0.165,-0.171 0.249,-0.254 L 219.826,94.204 172.124,141.906 c -6.395,6.395 -6.542,16.714 -0.339,23.287 56.061,59.41 96.136,128.321 122.067,205.514 51.08,-7.193 99.072,-30.651 135.197,-66.777 z"
       id="path9" /><path
       style="fill:#e0e0e2"
       d="m 500.486,170.284 c -12.516,-4.097 -24.815,-8.563 -36.895,-13.402 -4.88,46.168 -25.231,90.456 -58.183,123.408 -32.952,32.952 -77.242,53.297 -123.413,58.176 4.838,12.08 9.303,24.378 13.398,36.894 0.839,2.562 2.254,4.81 4.071,6.625 3.101,3.101 7.388,4.94 11.989,4.895 52.583,-0.516 104.059,-22.133 141.236,-59.309 37.177,-37.177 58.794,-88.652 59.309,-141.236 0.078,-7.294 -4.593,-13.797 -11.512,-16.051 z"
       id="path11" /><path
       style="fill:#c6c5ca"
       d="m 452.938,327.316 -47.281,-47.281 c -0.084,0.084 -0.165,0.171 -0.249,0.254 -32.952,32.952 -77.242,53.297 -123.413,58.176 4.838,12.08 9.303,24.378 13.398,36.894 0.839,2.562 2.255,4.81 4.071,6.625 3.101,3.101 7.388,4.94 11.989,4.895 52.583,-0.516 104.058,-22.133 141.236,-59.309 0.085,-0.083 0.166,-0.169 0.249,-0.254 z"
       id="path13" /><g
       id="g15" /><g
       id="g17" /><g
       id="g19" /><g
       id="g21" /><g
       id="g23" /><g
       id="g25" /><g
       id="g27" /><g
       id="g29" /><g
       id="g31" /><g
       id="g33" /><g
       id="g35" /><g
       id="g37" /><g
       id="g39" /><g
       id="g41" /><g
       id="g43" /></g></svg>