<?xml version="1.0" encoding="UTF-8" standalone="no"?>
<svg
   xmlns:dc="http://purl.org/dc/elements/1.1/"
   xmlns:cc="http://creativecommons.org/ns#"
   xmlns:rdf="http://www.w3.org/1999/02/22-rdf-syntax-ns#"
   xmlns:svg="http://www.w3.org/2000/svg"
   xmlns="http://www.w3.org/2000/svg"
   xmlns:sodipodi="http://sodipodi.sourceforge.net/DTD/sodipodi-0.dtd"
   xmlns:inkscape="http://www.inkscape.org/namespaces/inkscape"
   id="svg2"
   version="1.1"
   xml:space="preserve"
   style="enable-background:new 0 0 45 45;"
   viewBox="0 0 45 45"
   inkscape:version="0.91 r13725"
   sodipodi:docname="miner.svg"><sodipodi:namedview
     pagecolor="#ffffff"
     bordercolor="#666666"
     borderopacity="1"
     objecttolerance="10"
     gridtolerance="10"
     guidetolerance="10"
     inkscape:pageopacity="0"
     inkscape:pageshadow="2"
     inkscape:window-width="1600"
     inkscape:window-height="836"
     id="namedview16"
     showgrid="false"
     inkscape:zoom="5.2444444"
     inkscape:cx="2.1927966"
     inkscape:cy="22.5"
     inkscape:window-x="0"
     inkscape:window-y="62"
     inkscape:window-maximized="0"
     inkscape:current-layer="svg2" /><metadata
     id="metadata8"><rdf:RDF><cc:Work
         rdf:about=""><dc:format>image/svg+xml</dc:format><dc:type
           rdf:resource="http://purl.org/dc/dcmitype/StillImage" /><dc:title></dc:title></cc:Work></rdf:RDF></metadata><defs
     id="defs6"><clipPath
       clipPathUnits="userSpaceOnUse"
       id="clipPath16"><path
         d="M 0,36 36,36 36,0 0,0 0,36 Z"
         id="path18" /></clipPath></defs><g
     id="g10"
     transform="matrix(1.25,0,0,-1.25,0,45)"><g
       id="g12"><g
         id="g14"
         clip-path="url(#clipPath16)"><g
           id="g20"
           transform="translate(29.1855,2.7207)"><path
             d="M 0,0 C 1.166,-1.166 3.021,-1.221 4.121,-0.121 5.221,0.979 5.166,2.834 4,4 l -23.265,23.266 c -1.167,1.166 -3.021,1.221 -4.121,0.121 -1.1,-1.1 -1.046,-2.955 0.121,-4.121 L 0,0 Z"
             style="fill:#f4900c;fill-opacity:1;fill-rule:nonzero;stroke:none"
             id="path22" /></g><g
           id="g24"
           transform="translate(3.415,28.3428)"><path
             d="m 0,0 c -0.781,0.781 -0.781,2.048 0,2.829 l 1.414,1.414 c 0.78,0.78 2.047,0.78 2.828,0 0.781,-0.781 0.781,-2.048 0,-2.829 L 2.828,0 C 2.047,-0.78 0.78,-0.78 0,0"
             style="fill:#f4900c;fill-opacity:1;fill-rule:nonzero;stroke:none"
             id="path26" /></g><g
           id="g28"
           transform="translate(23,35)"><path
             d="m 0,0 c -1.857,0.743 -11.001,3 -18,-4 l 0,0 c -7,-7 -4.743,-16.143 -4,-18 2,-5 1.671,1.064 2,3 1.015,5.971 3.822,9.178 5.822,11.178 2,2 5.229,4.793 11.178,5.822 1.921,0.332 8,0 3,2"
             style="fill:#66757f;fill-opacity:1;fill-rule:nonzero;stroke:none"
             id="path30" /></g></g></g></g></svg>