<?xml version="1.0" encoding="UTF-8" standalone="no"?>
<svg
   xmlns:dc="http://purl.org/dc/elements/1.1/"
   xmlns:cc="http://creativecommons.org/ns#"
   xmlns:rdf="http://www.w3.org/1999/02/22-rdf-syntax-ns#"
   xmlns:svg="http://www.w3.org/2000/svg"
   xmlns="http://www.w3.org/2000/svg"
   xmlns:xlink="http://www.w3.org/1999/xlink"
   xmlns:sodipodi="http://sodipodi.sourceforge.net/DTD/sodipodi-0.dtd"
   xmlns:inkscape="http://www.inkscape.org/namespaces/inkscape"
   viewBox="0 0 45 45"
   style="enable-background:new 0 0 45 45;"
   xml:space="preserve"
   version="1.1"
   id="svg2"
   inkscape:version="0.91 r13725"
   sodipodi:docname="officer.svg"><sodipodi:namedview
     pagecolor="#ffffff"
     bordercolor="#666666"
     borderopacity="1"
     objecttolerance="10"
     gridtolerance="10"
     guidetolerance="10"
     inkscape:pageopacity="0"
     inkscape:pageshadow="2"
     inkscape:window-width="1600"
     inkscape:window-height="816"
     id="namedview45"
     showgrid="false"
     inkscape:zoom="11.313709"
     inkscape:cx="29.63936"
     inkscape:cy="37.434447"
     inkscape:window-x="0"
     inkscape:window-y="82"
     inkscape:window-maximized="0"
     inkscape:current-layer="svg2" /><metadata
     id="metadata8"><rdf:RDF><cc:Work
         rdf:about=""><dc:format>image/svg+xml</dc:format><dc:type
           rdf:resource="http://purl.org/dc/dcmitype/StillImage" /><dc:title></dc:title></cc:Work></rdf:RDF></metadata><defs
     id="defs6"><clipPath
       id="clipPath16"
       clipPathUnits="userSpaceOnUse"><path
         id="path18"
         d="M 0,36 36,36 36,0 0,0 0,36 Z" /></clipPath><radialGradient
       inkscape:collect="always"
       xlink:href="#linearGradient4146"
       id="radialGradient7176"
       gradientUnits="userSpaceOnUse"
       gradientTransform="matrix(0.2645028,-0.02322311,0.02877013,0.3276812,285.56005,253.19096)"
       cx="696.23462"
       cy="318.09991"
       fx="696.23462"
       fy="318.09991"
       r="249.79179" /><linearGradient
       id="linearGradient4146"><stop
         id="stop4148"
         offset="0"
         style="stop-color:#e9de94;stop-opacity:1;" /><stop
         id="stop4150"
         offset="1"
         style="stop-color:#e9de94;stop-opacity:0;" /></linearGradient><radialGradient
       inkscape:collect="always"
       xlink:href="#linearGradient4114"
       id="radialGradient7178"
       gradientUnits="userSpaceOnUse"
       gradientTransform="matrix(-0.729034,-0.02972218,0.02033062,-0.4986741,888.71761,928.29555)"
       cx="458.67865"
       cy="708.93274"
       fx="458.67865"
       fy="708.93274"
       r="249.79179" /><linearGradient
       id="linearGradient4114"><stop
         style="stop-color:#865100;stop-opacity:1;"
         offset="0"
         id="stop4116" /><stop
         style="stop-color:#865100;stop-opacity:0;"
         offset="1"
         id="stop4118" /></linearGradient><radialGradient
       inkscape:collect="always"
       xlink:href="#linearGradient4114"
       id="radialGradient7180"
       gradientUnits="userSpaceOnUse"
       gradientTransform="matrix(-0.4128648,-0.02709556,0.02107056,-0.3210597,662.53811,858.07427)"
       cx="746.81195"
       cy="257.75104"
       fx="746.81195"
       fy="257.75104"
       r="249.79179" /><radialGradient
       inkscape:collect="always"
       xlink:href="#linearGradient4114"
       id="radialGradient7182"
       gradientUnits="userSpaceOnUse"
       gradientTransform="matrix(-0.7288851,0.03317422,-0.01202121,-0.2641234,909.68403,710.61137)"
       cx="1026.5966"
       cy="652.80103"
       fx="1026.5966"
       fy="652.80103"
       r="249.79179" /><radialGradient
       inkscape:collect="always"
       xlink:href="#linearGradient4146"
       id="radialGradient7184"
       gradientUnits="userSpaceOnUse"
       gradientTransform="matrix(0.4532314,-0.04609931,0.03328577,0.3272533,145.97823,270.06845)"
       cx="91.299866"
       cy="266.78873"
       fx="91.299866"
       fy="266.78873"
       r="249.79179" /><radialGradient
       inkscape:collect="always"
       xlink:href="#linearGradient10147"
       id="radialGradient9170"
       gradientUnits="userSpaceOnUse"
       gradientTransform="matrix(0.4532314,-0.04609931,0.03328577,0.3272533,145.97823,270.06845)"
       cx="7.0530348"
       cy="611.98212"
       fx="7.0530348"
       fy="611.98212"
       r="249.79179" /><linearGradient
       id="linearGradient10147"><stop
         style="stop-color:#d9bd55;stop-opacity:1;"
         offset="0"
         id="stop10149" /><stop
         style="stop-color:#d9bd55;stop-opacity:0;"
         offset="1"
         id="stop10151" /></linearGradient><linearGradient
       inkscape:collect="always"
       xlink:href="#linearGradient5140"
       id="linearGradient5146"
       x1="184.87541"
       y1="655.24652"
       x2="563.55231"
       y2="366.72134"
       gradientUnits="userSpaceOnUse"
       gradientTransform="translate(39.710176,-9.1354908)" /><linearGradient
       id="linearGradient5140"><stop
         style="stop-color:#c38c00;stop-opacity:1;"
         offset="0"
         id="stop5142" /><stop
         id="stop5150"
         offset="0.25"
         style="stop-color:#e9de94;stop-opacity:1;" /><stop
         style="stop-color:#c38c00;stop-opacity:1;"
         offset="0.5"
         id="stop5152" /><stop
         id="stop5154"
         offset="0.75"
         style="stop-color:#e9de94;stop-opacity:1;" /><stop
         id="stop5148"
         offset="1"
         style="stop-color:#c38c00;stop-opacity:1;" /></linearGradient><linearGradient
       inkscape:collect="always"
       xlink:href="#linearGradient5180"
       id="linearGradient7216"
       gradientUnits="userSpaceOnUse"
       x1="322.5061"
       y1="596.06561"
       x2="363.5625"
       y2="605.40369"
       gradientTransform="translate(42.030516,-8.9059108)" /><linearGradient
       id="linearGradient5180"><stop
         style="stop-color:#824b00;stop-opacity:1;"
         offset="0"
         id="stop5182" /><stop
         style="stop-color:#b07b00;stop-opacity:1;"
         offset="1"
         id="stop5184" /></linearGradient><linearGradient
       inkscape:collect="always"
       xlink:href="#linearGradient6161"
       id="linearGradient7213"
       gradientUnits="userSpaceOnUse"
       x1="152.625"
       y1="559.72064"
       x2="362.36188"
       y2="559.72064"
       gradientTransform="translate(42.030516,-8.9059108)" /><linearGradient
       id="linearGradient6161"><stop
         style="stop-color:#deab2d;stop-opacity:1;"
         offset="0"
         id="stop6163" /><stop
         style="stop-color:#824b00;stop-opacity:1;"
         offset="1"
         id="stop6165" /></linearGradient><linearGradient
       gradientTransform="translate(148.66916,238.70233)"
       inkscape:collect="always"
       xlink:href="#linearGradient6161"
       id="linearGradient9166"
       x1="74.244423"
       y1="151.18668"
       x2="55.826202"
       y2="201.18668"
       gradientUnits="userSpaceOnUse" /><linearGradient
       gradientTransform="translate(148.66916,238.70233)"
       inkscape:collect="always"
       xlink:href="#linearGradient12101"
       id="linearGradient10161"
       x1="104.23959"
       y1="7.7045135"
       x2="253.3033"
       y2="272.03915"
       gradientUnits="userSpaceOnUse" /><linearGradient
       id="linearGradient12101"><stop
         id="stop12103"
         offset="0"
         style="stop-color:#824b00;stop-opacity:1;" /><stop
         style="stop-color:#deab2d;stop-opacity:1;"
         offset="0.5"
         id="stop12107" /><stop
         id="stop12105"
         offset="1"
         style="stop-color:#824b00;stop-opacity:1;" /></linearGradient><linearGradient
       gradientTransform="translate(148.66916,238.70233)"
       inkscape:collect="always"
       xlink:href="#linearGradient6161"
       id="linearGradient13086"
       x1="322.97101"
       y1="144.93362"
       x2="267.71936"
       y2="144.93362"
       gradientUnits="userSpaceOnUse" /><linearGradient
       gradientTransform="translate(148.66916,238.70233)"
       inkscape:collect="always"
       xlink:href="#linearGradient6161"
       id="linearGradient13098"
       x1="440.69827"
       y1="209.77686"
       x2="408.98047"
       y2="174.24997"
       gradientUnits="userSpaceOnUse" /><linearGradient
       gradientTransform="translate(148.66916,238.70233)"
       inkscape:collect="always"
       xlink:href="#linearGradient6161"
       id="linearGradient13108"
       x1="502.7529"
       y1="315.09189"
       x2="288.14603"
       y2="287.51471"
       gradientUnits="userSpaceOnUse" /><linearGradient
       gradientTransform="translate(148.66916,238.70233)"
       inkscape:collect="always"
       xlink:href="#linearGradient5180"
       id="linearGradient15056"
       x1="327.47882"
       y1="371.94208"
       x2="288.49957"
       y2="404.46899"
       gradientUnits="userSpaceOnUse" /><linearGradient
       gradientTransform="translate(148.66916,238.70233)"
       inkscape:collect="always"
       xlink:href="#linearGradient12101"
       id="linearGradient16035"
       x1="185.56729"
       y1="508.37265"
       x2="268.01138"
       y2="508.36008"
       gradientUnits="userSpaceOnUse" /></defs><g
     transform="matrix(1.25,0,0,-1.25,0,45)"
     id="g10"><g
       id="g12"><g
         clip-path="url(#clipPath16)"
         id="g14"><g
           transform="translate(27,18)"
           id="g20"><path
             id="path22"
             style="fill:#292f33;fill-opacity:1;fill-rule:nonzero;stroke:none"
             d="m 0,0 c 0,-4.971 -4.029,-5 -9,-5 -4.971,0 -9,0.029 -9,5 0,8.938 4.029,9 9,9 4.971,0 9,-0.101 9,-9" /></g><g
           transform="translate(30,0)"
           id="g24"><path
             id="path26"
             style="fill:#dd2e44;fill-opacity:1;fill-rule:nonzero;stroke:none"
             d="m 0,0 0,1 c 0,3.314 -1.686,6 -5,6 l -14,0 c -3.313,0 -5,-2.686 -5,-6 l 0,-1 24,0 z" /></g><g
           transform="translate(14.6259,6.5439)"
           id="g28"><path
             id="path30"
             style="fill:#ffdc5d;fill-opacity:1;fill-rule:nonzero;stroke:none"
             d="m 0,0 c 1.344,-0.976 2.195,-1.194 3.36,-1.194 1.165,0 2.017,0.218 3.361,1.194 l 0,2.938 L 0,2.938 0,0 Z" /></g><g
           transform="translate(14.6198,8.1841)"
           id="g32"><path
             id="path34"
             style="fill:#f9ca55;fill-opacity:1;fill-rule:nonzero;stroke:none"
             d="m 0,0 c 0.938,-1.059 2.1,-1.345 3.364,-1.345 1.263,0 2.425,0.287 3.363,1.345 l 0,2.691 L 0,2.691 0,0 Z" /></g><g
           transform="translate(12.9339,15.9203)"
           id="g36"><path
             id="path38"
             style="fill:#ffdc5d;fill-opacity:1;fill-rule:nonzero;stroke:none"
             d="m 0,0 c 0,-1.116 -0.565,-2.021 -1.263,-2.021 -0.698,0 -1.263,0.905 -1.263,2.021 0,1.116 0.565,2.021 1.263,2.021 C -0.565,2.021 0,1.116 0,0" /></g><g
           transform="translate(25.5654,15.9203)"
           id="g40"><path
             id="path42"
             style="fill:#ffdc5d;fill-opacity:1;fill-rule:nonzero;stroke:none"
             d="m 0,0 c 0,-1.116 -0.565,-2.021 -1.263,-2.021 -0.698,0 -1.263,0.905 -1.263,2.021 0,1.116 0.565,2.021 1.263,2.021 C -0.565,2.021 0,1.116 0,0" /></g><g
           transform="translate(11.4181,15.1308)"
           id="g44"><path
             id="path46"
             style="fill:#ffdc5d;fill-opacity:1;fill-rule:nonzero;stroke:none"
             d="m 0,0 c 0,4.308 2.941,7.8 6.568,7.8 3.628,0 6.569,-3.492 6.569,-7.8 0,-4.308 -2.941,-7.8 -6.569,-7.8 C 2.941,-7.8 0,-4.308 0,0" /></g><g
           transform="translate(17.9865,9.8571)"
           id="g48"><path
             id="path50"
             style="fill:#c1694f;fill-opacity:1;fill-rule:nonzero;stroke:none"
             d="m 0,0 c -2.123,0 -2.774,0.544 -2.884,0.653 -0.197,0.198 -0.197,0.517 0,0.715 0.192,0.191 0.498,0.197 0.696,0.018 C -2.148,1.357 -1.632,1.011 0,1.011 1.695,1.011 2.186,1.384 2.191,1.388 2.388,1.584 2.697,1.575 2.894,1.378 3.092,1.18 3.081,0.851 2.884,0.653 2.775,0.544 2.123,0 0,0" /></g><g
           transform="translate(14.9036,15.0998)"
           id="g52"><path
             id="path54"
             style="fill:#662113;fill-opacity:1;fill-rule:nonzero;stroke:none"
             d="m 0,0 0,0 c -0.424,0 -0.771,0.347 -0.771,0.771 l 0,0.77 c 0,0.424 0.347,0.771 0.771,0.771 l 0,0 c 0.424,0 0.771,-0.347 0.771,-0.771 l 0,-0.77 C 0.771,0.347 0.424,0 0,0" /></g><g
           transform="translate(21.0694,15.0998)"
           id="g56"><path
             id="path58"
             style="fill:#662113;fill-opacity:1;fill-rule:nonzero;stroke:none"
             d="m 0,0 0,0 c -0.424,0 -0.771,0.347 -0.771,0.771 l 0,0.77 c 0,0.424 0.347,0.771 0.771,0.771 l 0,0 c 0.424,0 0.771,-0.347 0.771,-0.771 l 0,-0.77 C 0.771,0.347 0.424,0 0,0" /></g><g
           transform="translate(18.5646,12.9803)"
           id="g60"><path
             id="path62"
             style="fill:#c1694f;fill-opacity:1;fill-rule:nonzero;stroke:none"
             d="m 0,0 -1.156,0 c -0.318,0 -0.578,0.26 -0.578,0.578 l 0,0 c 0,0.318 0.26,0.578 0.578,0.578 l 1.156,0 c 0.318,0 0.578,-0.26 0.578,-0.578 l 0,0 C 0.578,0.26 0.318,0 0,0" /></g><g
           transform="translate(12.5782,5.5392)"
           id="g64"><path
             id="path66"
             style="fill:#292f33;fill-opacity:1;fill-rule:nonzero;stroke:none"
             d="m 0,0 -4.653,-0.737 c -0.272,-0.043 -0.529,0.144 -0.572,0.416 l -0.157,0.987 c -0.043,0.272 0.144,0.529 0.416,0.572 l 4.653,0.737 C -0.041,2.018 0.216,1.831 0.259,1.56 L 0.416,0.572 C 0.459,0.3 0.272,0.043 0,0" /></g><g
           transform="translate(23.4479,5.5392)"
           id="g68"><path
             id="path70"
             style="fill:#292f33;fill-opacity:1;fill-rule:nonzero;stroke:none"
             d="m 0,0 4.653,-0.737 c 0.272,-0.043 0.529,0.144 0.572,0.416 L 5.382,0.666 C 5.425,0.938 5.238,1.195 4.966,1.238 L 0.313,1.975 C 0.041,2.018 -0.216,1.831 -0.259,1.56 L -0.416,0.572 C -0.459,0.3 -0.272,0.043 0,0" /></g><g
           transform="translate(11.875,18)"
           id="g72"><path
             id="path74"
             style="fill:#99aab5;fill-opacity:1;fill-rule:nonzero;stroke:none"
             d="m 0,0 c 0,0 -0.174,-9 6.113,-9 6.287,0 6.137,9 6.137,9 l 0.875,0 c 0,0 -0.307,-10 -7,-10 -6.693,0 -7,10 -7,10 L 0,0 Z" /></g><g
           transform="translate(26,18)"
           id="g76"><path
             id="path78"
             style="fill:#292f33;fill-opacity:1;fill-rule:nonzero;stroke:none"
             d="m 0,0 -16,0 c -0.55,0 -1,0.45 -1,1 l 0,11 c 0,3.3 2.7,6 6,6 l 6,0 c 3.3,0 6,-2.7 6,-6 L 1,1 C 1,0.45 0.55,0 0,0" /></g><path
           id="path80"
           style="fill:#f5f8fa;fill-opacity:1;fill-rule:nonzero;stroke:none"
           d="m 18.5,0 -1,0 0,5 1,0 0,-5 z" /><g
           transform="translate(14.6198,8.1841)"
           id="g82"><path
             id="path84"
             style="fill:#292f33;fill-opacity:1;fill-rule:nonzero;stroke:none"
             d="m 0,0 c 0,0 -0.62,0.127 -0.62,-1.184 0,-1.311 1.888,-3 4,-3 l 0,2 C 2.236,-2.184 0,-1.576 0,0" /></g><g
           transform="translate(21.3802,8.1841)"
           id="g86"><path
             id="path88"
             style="fill:#292f33;fill-opacity:1;fill-rule:nonzero;stroke:none"
             d="m 0,0 c 0,0 0.62,0.127 0.62,-1.184 0,-1.311 -1.888,-3 -4,-3 l 0,2 C -2.236,-2.184 0,-1.576 0,0" /></g></g></g></g><g
     transform="matrix(0.02442219,0,0,0.02442219,12.530537,-2.7070443)"
     id="g3829"><g
       transform="translate(41.297317,-8.2854573)"
       id="g7150"><path
         inkscape:connector-curvature="0"
         style="fill:#cc9900;fill-opacity:1;fill-rule:evenodd;stroke:none;stroke-width:1px;stroke-linecap:butt;stroke-linejoin:miter;stroke-opacity:1"
         d="m 314.40998,757.39764 c 17.87114,17.83256 50.80835,19.6923 73.99367,2.77792 4.04133,-27.82419 7.36577,-55.97925 5.3033,-86.62058 46.05551,23.60425 60.99719,29.15793 117.68278,21.2132 9.62095,-28.2609 11.48084,-58.59142 6.81853,-90.66119 38.02943,-5.92203 68.00543,-23.92421 88.89342,-55.55839 -16.80907,-48.94114 -26.91722,-59.77946 -57.83123,-94.95434 11.83567,-39.41804 15.60576,-57.80934 12.12183,-98.48987 -50.79928,-19.81958 -65.80616,-21.28515 -124.69585,-17.56364 -24.21436,-53.95153 -35.52881,-60.68521 -75.53571,-90 -57.30601,46.42512 -64.44464,43.5176 -100.00001,101.33929 -57.51166,-2.3022 -71.98562,-6.87036 -124.28571,17.76786 9.94075,46.5197 7.26956,53.61143 29.95801,103.58231 -32.81111,35.71881 -45.94503,39.76839 -59.3149,88.86186 31.11557,22.00914 44.71208,34.52395 90.56649,46.21448 -3.43589,23.39234 -7.21466,53.61988 18.96897,87.99313 49.97197,-1.02726 53.72946,3.8248 118.09611,-16.71425 -6.35374,27.77665 -13.44043,54.45387 -20.7397,80.81221 z"
         id="path2170"
         sodipodi:nodetypes="cccccccccccccccccc" /><path
         inkscape:connector-curvature="0"
         style="fill:url(#radialGradient7176);fill-opacity:1;fill-rule:evenodd;stroke:none;stroke-width:1px;stroke-linecap:butt;stroke-linejoin:miter;stroke-opacity:1"
         d="m 314.40998,757.39703 c 17.87114,17.83256 50.80835,19.6923 73.99367,2.77792 4.04133,-27.82419 7.36577,-55.97925 5.3033,-86.62058 46.05551,23.60425 60.99719,29.15793 117.68278,21.2132 9.62095,-28.2609 11.48084,-58.59142 6.81853,-90.66119 38.02943,-5.92203 68.00543,-23.92421 88.89342,-55.55839 -16.80907,-48.94114 -26.91722,-59.77946 -57.83123,-94.95434 11.83567,-39.41804 15.60576,-57.80934 12.12183,-98.48987 -50.79928,-19.81958 -65.80616,-21.28515 -124.69585,-17.56364 -24.21436,-53.95153 -35.52881,-60.68521 -75.53571,-90 -57.30601,46.42512 -64.44464,43.5176 -100.00001,101.33929 -57.51166,-2.3022 -71.98562,-6.87036 -124.28571,17.76786 9.94075,46.5197 7.26956,53.61143 29.95801,103.58231 -32.81111,35.71881 -45.94503,39.76839 -59.3149,88.86186 31.11557,22.00914 44.71208,34.52395 90.56649,46.21448 -3.43589,23.39234 -7.21466,53.61988 18.96897,87.99313 49.97197,-1.02726 53.72946,3.8248 118.09611,-16.71425 -6.35374,27.77665 -13.44043,54.45387 -20.7397,80.81221 z"
         id="path5156"
         sodipodi:nodetypes="cccccccccccccccccc" /><path
         inkscape:connector-curvature="0"
         sodipodi:nodetypes="ccccccccccc"
         id="path3143"
         d="m 314.40998,757.39764 c 17.87114,17.83256 50.80835,19.6923 73.99367,2.77792 4.04133,-27.82419 7.36577,-55.97925 5.3033,-86.62058 46.05551,23.60425 60.99719,29.15793 117.68278,21.2132 9.62095,-28.2609 11.48084,-58.59142 6.81853,-90.66119 38.02943,-5.92203 68.00543,-23.92421 88.89342,-55.55839 l -499.58357,10.54347 c 31.11557,22.00914 44.71208,34.52395 90.56649,46.21448 -3.43589,23.39234 -7.21466,53.61988 18.96897,87.99313 49.97197,-1.02726 53.72946,3.8248 118.09611,-16.71425 -6.35374,27.77665 -13.44043,54.45387 -20.7397,80.81221 z"
         style="fill:url(#radialGradient7178);fill-opacity:1;fill-rule:evenodd;stroke:none;stroke-width:1px;stroke-linecap:butt;stroke-linejoin:miter;stroke-opacity:1" /><path
         inkscape:connector-curvature="0"
         style="fill:url(#radialGradient7180);fill-opacity:1;fill-rule:evenodd;stroke:none;stroke-width:1px;stroke-linecap:butt;stroke-linejoin:miter;stroke-opacity:1"
         d="m 314.40998,757.39764 c 17.87114,17.83256 50.80835,19.6923 73.99367,2.77792 4.04133,-27.82419 7.36577,-55.97925 5.3033,-86.62058 l -58.55727,3.03045 c -6.35374,27.77665 -13.44043,54.45387 -20.7397,80.81221 z"
         id="path4126"
         sodipodi:nodetypes="ccccc" /><path
         inkscape:connector-curvature="0"
         style="fill:url(#radialGradient7182);fill-opacity:1;fill-rule:evenodd;stroke:none;stroke-width:1px;stroke-linecap:butt;stroke-linejoin:miter;stroke-opacity:1"
         d="m 314.40998,757.39764 c 17.87114,17.83256 50.80835,19.6923 73.99367,2.77792 4.04133,-27.82419 7.36577,-55.97925 5.3033,-86.62058 46.05551,23.60425 60.99719,29.15793 117.68278,21.2132 9.62095,-28.2609 11.48084,-58.59142 6.81853,-90.66119 38.02943,-5.92203 68.00543,-23.92421 88.89342,-55.55839 l -499.58357,10.54347 c 31.11557,22.00914 44.71208,34.52395 90.56649,46.21448 -3.43589,23.39234 -7.21466,53.61988 18.96897,87.99313 49.97197,-1.02726 53.72946,3.8248 118.09611,-16.71425 -6.35374,27.77665 -13.44043,54.45387 -20.7397,80.81221 z"
         id="path4130"
         sodipodi:nodetypes="ccccccccccc" /><path
         inkscape:connector-curvature="0"
         sodipodi:nodetypes="cccccccccccccccccc"
         id="path4136"
         d="m 314.40998,757.39764 c 17.87114,17.83256 50.80835,19.6923 73.99367,2.77792 4.04133,-27.82419 7.36577,-55.97925 5.3033,-86.62058 46.05551,23.60425 60.99719,29.15793 117.68278,21.2132 9.62095,-28.2609 11.48084,-58.59142 6.81853,-90.66119 38.02943,-5.92203 68.00543,-23.92421 88.89342,-55.55839 -16.80907,-48.94114 -26.91722,-59.77946 -57.83123,-94.95434 11.83567,-39.41804 15.60576,-57.80934 12.12183,-98.48987 -50.79928,-19.81958 -65.80616,-21.28515 -124.69585,-17.56364 -24.21436,-53.95153 -35.52881,-60.68521 -75.53571,-90 -57.30601,46.42512 -64.44464,43.5176 -100.00001,101.33929 -57.51166,-2.3022 -71.98562,-6.87036 -124.28571,17.76786 9.94075,46.5197 7.26956,53.61143 29.95801,103.58231 -32.81111,35.71881 -45.94503,39.76839 -59.3149,88.86186 31.11557,22.00914 44.71208,34.52395 90.56649,46.21448 -3.43589,23.39234 -7.21466,53.61988 18.96897,87.99313 49.97197,-1.02726 53.72946,3.8248 118.09611,-16.71425 -6.35374,27.77665 -13.44043,54.45387 -20.7397,80.81221 z"
         style="fill:url(#radialGradient7184);fill-opacity:1;fill-rule:evenodd;stroke:none;stroke-width:1px;stroke-linecap:butt;stroke-linejoin:miter;stroke-opacity:1" /><path
         inkscape:connector-curvature="0"
         style="fill:url(#radialGradient9170);fill-opacity:1;fill-rule:evenodd;stroke:none;stroke-width:1px;stroke-linecap:butt;stroke-linejoin:miter;stroke-opacity:1"
         d="m 314.40998,757.39764 c 17.87114,17.83256 50.80835,19.6923 73.99367,2.77792 4.04133,-27.82419 7.36577,-55.97925 5.3033,-86.62058 46.05551,23.60425 60.99719,29.15793 117.68278,21.2132 9.62095,-28.2609 11.48084,-58.59142 6.81853,-90.66119 38.02943,-5.92203 68.00543,-23.92421 88.89342,-55.55839 -16.80907,-48.94114 -26.91722,-59.77946 -57.83123,-94.95434 11.83567,-39.41804 15.60576,-57.80934 12.12183,-98.48987 -50.79928,-19.81958 -65.80616,-21.28515 -124.69585,-17.56364 -24.21436,-53.95153 -35.52881,-60.68521 -75.53571,-90 -57.30601,46.42512 -64.44464,43.5176 -100.00001,101.33929 -57.51166,-2.3022 -71.98562,-6.87036 -124.28571,17.76786 9.94075,46.5197 7.26956,53.61143 29.95801,103.58231 -32.81111,35.71881 -45.94503,39.76839 -59.3149,88.86186 31.11557,22.00914 44.71208,34.52395 90.56649,46.21448 -3.43589,23.39234 -7.21466,53.61988 18.96897,87.99313 49.97197,-1.02726 53.72946,3.8248 118.09611,-16.71425 -6.35374,27.77665 -13.44043,54.45387 -20.7397,80.81221 z"
         id="path9168"
         sodipodi:nodetypes="cccccccccccccccccc" /></g><path
       inkscape:connector-curvature="0"
       sodipodi:nodetypes="cccccccccccccccccc"
       id="path4152"
       d="m 361.66655,747.08446 c 17.21868,14.88455 40.44077,16.64248 62.77963,2.67936 3.8938,-26.83709 5.357,-66.31187 3.3698,-95.86617 44.3741,22.76687 65.5245,35.37353 120.1405,27.71065 9.2697,-27.25831 9.0617,-60.26284 4.5696,-91.19491 36.6411,-5.71194 70.612,-20.78977 90.7374,-51.3017 -16.1954,-47.20491 -29.2738,-58.94445 -59.0592,-92.87147 11.4036,-38.01966 15.786,-56.50851 12.4293,-95.74586 -48.9447,-19.11647 -65.1537,-19.03005 -121.8934,-15.44056 -23.3303,-52.03756 -34.2317,-61.53235 -72.77798,-89.80718 -55.21382,44.77815 -61.84183,44.97378 -96.09912,100.74421 -55.41196,-2.22054 -71.3575,-8.62663 -121.74817,15.13753 9.57783,44.86936 9.00416,53.95951 30.86427,102.15764 -31.6132,34.45165 -46.39135,40.62534 -59.2731,87.97717 29.97958,21.22836 44.70342,30.03142 88.88373,41.30723 -3.31044,22.56248 -9.32625,53.96766 15.90144,87.1215 48.14755,-0.99082 62.15127,-0.56089 124.16796,-20.3713 -6.12177,26.79125 -15.95989,62.34061 -22.99266,87.76386 z"
       style="display:inline;fill:url(#linearGradient5146);fill-opacity:1;fill-rule:evenodd;stroke:none;stroke-width:1px;stroke-linecap:butt;stroke-linejoin:miter;stroke-opacity:1" /><path
       inkscape:connector-curvature="0"
       sodipodi:nodetypes="cccc"
       id="path5178"
       d="m 405.59301,529.51878 -19.8125,123.9375 c -53.92103,16.30884 -62.50752,21.35074 -120.71966,21.92674 12.17565,-49.9882 120.46872,-135.28408 140.53216,-145.86424 z"
       style="display:inline;fill:url(#linearGradient7216);fill-opacity:1;fill-rule:evenodd;stroke:none;stroke-width:1px;stroke-linecap:butt;stroke-linejoin:miter;stroke-opacity:1" /><path
       inkscape:connector-curvature="0"
       sodipodi:nodetypes="cccc"
       id="path5190"
       d="m 159.15551,549.33128 c 84.13708,-34.34444 114.09122,-48.96597 244.73689,-27.18947 -79.71083,24.437 -82.55229,22.76639 -154.76798,67.61709 -33.17817,-10.14242 -64.09893,-22.64484 -89.96891,-40.42762 z"
       style="display:inline;fill:url(#linearGradient7213);fill-opacity:1;fill-rule:evenodd;stroke:none;stroke-width:1px;stroke-linecap:butt;stroke-linejoin:miter;stroke-opacity:1" /><path
       inkscape:connector-curvature="0"
       sodipodi:nodetypes="cccc"
       id="path7220"
       d="m 218.1424,462.33964 c -21.2802,-41.7724 -20.31596,-59.53904 -30.2288,-98.81817 93.91219,45.91427 108.21614,39.74654 217.08178,152.73507 -106.16764,-42.60609 -94.77013,-36.10146 -186.85298,-53.9169 z"
       style="display:inline;fill:url(#linearGradient9166);fill-opacity:1;fill-rule:evenodd;stroke:none;stroke-width:1px;stroke-linecap:butt;stroke-linejoin:miter;stroke-opacity:1" /><path
       inkscape:connector-curvature="0"
       sodipodi:nodetypes="cccc"
       id="path10153"
       d="M 406.18861,513.82586 C 370.09312,451.50245 334.95814,398.35808 303.91916,349.7868 l 5.625,0.125 c 39.56938,51.83449 60.70081,92.78191 96.64445,163.91406 z"
       style="display:inline;fill:url(#linearGradient10161);fill-opacity:1;fill-rule:evenodd;stroke:none;stroke-width:1px;stroke-linecap:butt;stroke-linejoin:miter;stroke-opacity:1" /><path
       inkscape:connector-curvature="0"
       sodipodi:nodetypes="cccc"
       id="path12109"
       d="m 402.91916,250.6618 c 26.21537,18.07292 49.27587,38.31483 68.72102,86.25478 -17.23135,59.89784 -38.72629,119.79567 -62.49056,179.69351 -10.13277,-89.45502 -4.49218,-177.33271 -6.23046,-265.94829 z"
       style="display:inline;fill:url(#linearGradient13086);fill-opacity:1;fill-rule:evenodd;stroke:none;stroke-width:1px;stroke-linecap:butt;stroke-linejoin:miter;stroke-opacity:1" /><path
       inkscape:connector-curvature="0"
       sodipodi:nodetypes="cccc"
       id="path13088"
       d="m 409.41916,518.5368 c 55.35511,-27.3649 82.14321,-37.57845 172.5,-76.375 10.21475,-29.375 11.51773,-58.75 12.5,-88.125 -63.08994,54.35891 -129.30623,107.6757 -185,164.5 z"
       style="display:inline;fill:url(#linearGradient13098);fill-opacity:1;fill-rule:evenodd;stroke:none;stroke-width:1px;stroke-linecap:butt;stroke-linejoin:miter;stroke-opacity:1" /><path
       inkscape:connector-curvature="0"
       sodipodi:nodetypes="cccc"
       id="path13100"
       d="m 412.41999,521.91339 c 109.86934,-19.25962 98.17257,-3.46256 224.85995,16.97056 -17.71044,29.78938 -52.0377,42.37273 -86.62058,48.43682 -43.48403,-27.85922 -51.47935,-31.256 -138.23937,-65.40738 z"
       style="display:inline;fill:url(#linearGradient13108);fill-opacity:1;fill-rule:evenodd;stroke:none;stroke-width:1px;stroke-linecap:butt;stroke-linejoin:miter;stroke-opacity:1" /><path
       inkscape:connector-curvature="0"
       sodipodi:nodetypes="cccc"
       id="path13110"
       d="m 542.52764,678.00722 c -42.61539,5.212 -78.64635,-6.5856 -109.95511,-30.58238 -2.18995,-38.89087 -5.21329,-67.52869 -22.80419,-116.67261 62.76626,56.14816 92.62786,95.60907 132.7593,147.25499 z"
       style="display:inline;fill:url(#linearGradient15056);fill-opacity:1;fill-rule:evenodd;stroke:none;stroke-width:1px;stroke-linecap:butt;stroke-linejoin:miter;stroke-opacity:1" /><path
       inkscape:connector-curvature="0"
       sodipodi:nodetypes="ccc"
       id="path15058"
       d="m 361.88883,746.94842 c 9.63225,-14.9864 67.95606,-9.4743 62.78034,2.9294 -17.79731,13.1646 -48.94377,13.072 -62.78034,-2.9294 z"
       style="display:inline;fill:url(#linearGradient16035);fill-opacity:1;fill-rule:evenodd;stroke:none;stroke-width:1px;stroke-linecap:butt;stroke-linejoin:miter;stroke-opacity:1" /></g></svg>