<?xml version="1.0" encoding="UTF-8" standalone="no"?>
<svg
   xmlns:dc="http://purl.org/dc/elements/1.1/"
   xmlns:cc="http://creativecommons.org/ns#"
   xmlns:rdf="http://www.w3.org/1999/02/22-rdf-syntax-ns#"
   xmlns:svg="http://www.w3.org/2000/svg"
   xmlns="http://www.w3.org/2000/svg"
   xmlns:sodipodi="http://sodipodi.sourceforge.net/DTD/sodipodi-0.dtd"
   xmlns:inkscape="http://www.inkscape.org/namespaces/inkscape"
   viewBox="0 0 45 45"
   style="enable-background:new 0 0 45 45;"
   xml:space="preserve"
   version="1.1"
   id="svg2"
   inkscape:version="0.91 r13725"
   sodipodi:docname="prisoner.svg"><sodipodi:namedview
     pagecolor="#ffffff"
     bordercolor="#666666"
     borderopacity="1"
     objecttolerance="10"
     gridtolerance="10"
     guidetolerance="10"
     inkscape:pageopacity="0"
     inkscape:pageshadow="2"
     inkscape:window-width="1600"
     inkscape:window-height="816"
     id="namedview14"
     showgrid="false"
     inkscape:zoom="5.2444444"
     inkscape:cx="1.8114407"
     inkscape:cy="22.5"
     inkscape:window-x="0"
     inkscape:window-y="82"
     inkscape:window-maximized="0"
     inkscape:current-layer="svg2" /><metadata
     id="metadata8"><rdf:RDF><cc:Work
         rdf:about=""><dc:format>image/svg+xml</dc:format><dc:type
           rdf:resource="http://purl.org/dc/dcmitype/StillImage" /><dc:title></dc:title></cc:Work></rdf:RDF></metadata><defs
     id="defs6"><clipPath
       id="clipPath16"
       clipPathUnits="userSpaceOnUse"><path
         id="path18"
         d="M 0,36 36,36 36,0 0,0 0,36 Z" /></clipPath></defs><g
     transform="matrix(1.25,0,0,-1.25,0,45)"
     id="g10"><g
       id="g12"><g
         clip-path="url(#clipPath16)"
         id="g14"><g
           transform="translate(18,33)"
           id="g20"><path
             id="path22"
             style="fill:#aab8c2;fill-opacity:1;fill-rule:nonzero;stroke:none"
             d="m 0,0 c -5.523,0 -10,-4.477 -10,-9.999 l 0,-10.001 4,0 0,10.001 C -6,-6.687 -3.314,-4 0,-4 3.314,-4 6,-6.687 6,-9.999 L 6,-20 l 4,0 0,10.001 C 10,-4.477 5.523,0 0,0" /></g><g
           transform="translate(31,4)"
           id="g24"><path
             id="path26"
             style="fill:#ffac33;fill-opacity:1;fill-rule:nonzero;stroke:none"
             d="m 0,0 c 0,-2.209 -1.791,-4 -4,-4 l -18,0 c -2.209,0 -4,1.791 -4,4 l 0,12 c 0,2.209 1.791,4 4,4 l 18,0 c 2.209,0 4,-1.791 4,-4 L 0,0 Z" /></g></g></g></g></svg>