<?xml version="1.0" encoding="UTF-8" standalone="no"?>
<svg
   xmlns:dc="http://purl.org/dc/elements/1.1/"
   xmlns:cc="http://creativecommons.org/ns#"
   xmlns:rdf="http://www.w3.org/1999/02/22-rdf-syntax-ns#"
   xmlns:svg="http://www.w3.org/2000/svg"
   xmlns="http://www.w3.org/2000/svg"
   xmlns:sodipodi="http://sodipodi.sourceforge.net/DTD/sodipodi-0.dtd"
   xmlns:inkscape="http://www.inkscape.org/namespaces/inkscape"
   viewBox="0 0 45 45"
   style="enable-background:new 0 0 45 45;"
   xml:space="preserve"
   version="1.1"
   id="svg2"
   inkscape:version="0.91 r13725"
   sodipodi:docname="sergeant.svg"><sodipodi:namedview
     pagecolor="#ffffff"
     bordercolor="#666666"
     borderopacity="1"
     objecttolerance="10"
     gridtolerance="10"
     guidetolerance="10"
     inkscape:pageopacity="0"
     inkscape:pageshadow="2"
     inkscape:window-width="1600"
     inkscape:window-height="816"
     id="namedview45"
     showgrid="false"
     inkscape:zoom="11.313709"
     inkscape:cx="28.585211"
     inkscape:cy="21.63253"
     inkscape:window-x="0"
     inkscape:window-y="82"
     inkscape:window-maximized="0"
     inkscape:current-layer="svg2" /><metadata
     id="metadata8"><rdf:RDF><cc:Work
         rdf:about=""><dc:format>image/svg+xml</dc:format><dc:type
           rdf:resource="http://purl.org/dc/dcmitype/StillImage" /><dc:title></dc:title></cc:Work></rdf:RDF></metadata><defs
     id="defs6"><clipPath
       id="clipPath16"
       clipPathUnits="userSpaceOnUse"><path
         id="path18"
         d="M 0,36 36,36 36,0 0,0 0,36 Z" /></clipPath></defs><g
     transform="matrix(1.25,0,0,-1.25,0,45)"
     id="g10"><g
       id="g12"><g
         clip-path="url(#clipPath16)"
         id="g14"><g
           transform="translate(27,18)"
           id="g20"><path
             id="path22"
             style="fill:#292f33;fill-opacity:1;fill-rule:nonzero;stroke:none"
             d="m 0,0 c 0,-4.971 -4.029,-5 -9,-5 -4.971,0 -9,0.029 -9,5 0,8.938 4.029,9 9,9 4.971,0 9,-0.101 9,-9" /></g><g
           transform="translate(30,0)"
           id="g24"><path
             id="path26"
             style="fill:#dd2e44;fill-opacity:1;fill-rule:nonzero;stroke:none"
             d="m 0,0 0,1 c 0,3.314 -1.686,6 -5,6 l -14,0 c -3.313,0 -5,-2.686 -5,-6 l 0,-1 24,0 z" /></g><g
           transform="translate(14.6259,6.5439)"
           id="g28"><path
             id="path30"
             style="fill:#ffdc5d;fill-opacity:1;fill-rule:nonzero;stroke:none"
             d="m 0,0 c 1.344,-0.976 2.195,-1.194 3.36,-1.194 1.165,0 2.017,0.218 3.361,1.194 l 0,2.938 L 0,2.938 0,0 Z" /></g><g
           transform="translate(14.6198,8.1841)"
           id="g32"><path
             id="path34"
             style="fill:#f9ca55;fill-opacity:1;fill-rule:nonzero;stroke:none"
             d="m 0,0 c 0.938,-1.059 2.1,-1.345 3.364,-1.345 1.263,0 2.425,0.287 3.363,1.345 l 0,2.691 L 0,2.691 0,0 Z" /></g><g
           transform="translate(12.9339,15.9203)"
           id="g36"><path
             id="path38"
             style="fill:#ffdc5d;fill-opacity:1;fill-rule:nonzero;stroke:none"
             d="m 0,0 c 0,-1.116 -0.565,-2.021 -1.263,-2.021 -0.698,0 -1.263,0.905 -1.263,2.021 0,1.116 0.565,2.021 1.263,2.021 C -0.565,2.021 0,1.116 0,0" /></g><g
           transform="translate(25.5654,15.9203)"
           id="g40"><path
             id="path42"
             style="fill:#ffdc5d;fill-opacity:1;fill-rule:nonzero;stroke:none"
             d="m 0,0 c 0,-1.116 -0.565,-2.021 -1.263,-2.021 -0.698,0 -1.263,0.905 -1.263,2.021 0,1.116 0.565,2.021 1.263,2.021 C -0.565,2.021 0,1.116 0,0" /></g><g
           transform="translate(11.4181,15.1308)"
           id="g44"><path
             id="path46"
             style="fill:#ffdc5d;fill-opacity:1;fill-rule:nonzero;stroke:none"
             d="m 0,0 c 0,4.308 2.941,7.8 6.568,7.8 3.628,0 6.569,-3.492 6.569,-7.8 0,-4.308 -2.941,-7.8 -6.569,-7.8 C 2.941,-7.8 0,-4.308 0,0" /></g><g
           transform="translate(17.9865,9.8571)"
           id="g48"><path
             id="path50"
             style="fill:#c1694f;fill-opacity:1;fill-rule:nonzero;stroke:none"
             d="m 0,0 c -2.123,0 -2.774,0.544 -2.884,0.653 -0.197,0.198 -0.197,0.517 0,0.715 0.192,0.191 0.498,0.197 0.696,0.018 C -2.148,1.357 -1.632,1.011 0,1.011 1.695,1.011 2.186,1.384 2.191,1.388 2.388,1.584 2.697,1.575 2.894,1.378 3.092,1.18 3.081,0.851 2.884,0.653 2.775,0.544 2.123,0 0,0" /></g><g
           transform="translate(14.9036,15.0998)"
           id="g52"><path
             id="path54"
             style="fill:#662113;fill-opacity:1;fill-rule:nonzero;stroke:none"
             d="m 0,0 0,0 c -0.424,0 -0.771,0.347 -0.771,0.771 l 0,0.77 c 0,0.424 0.347,0.771 0.771,0.771 l 0,0 c 0.424,0 0.771,-0.347 0.771,-0.771 l 0,-0.77 C 0.771,0.347 0.424,0 0,0" /></g><g
           transform="translate(21.0694,15.0998)"
           id="g56"><path
             id="path58"
             style="fill:#662113;fill-opacity:1;fill-rule:nonzero;stroke:none"
             d="m 0,0 0,0 c -0.424,0 -0.771,0.347 -0.771,0.771 l 0,0.77 c 0,0.424 0.347,0.771 0.771,0.771 l 0,0 c 0.424,0 0.771,-0.347 0.771,-0.771 l 0,-0.77 C 0.771,0.347 0.424,0 0,0" /></g><g
           transform="translate(18.5646,12.9803)"
           id="g60"><path
             id="path62"
             style="fill:#c1694f;fill-opacity:1;fill-rule:nonzero;stroke:none"
             d="m 0,0 -1.156,0 c -0.318,0 -0.578,0.26 -0.578,0.578 l 0,0 c 0,0.318 0.26,0.578 0.578,0.578 l 1.156,0 c 0.318,0 0.578,-0.26 0.578,-0.578 l 0,0 C 0.578,0.26 0.318,0 0,0" /></g><g
           transform="translate(12.5782,5.5392)"
           id="g64"><path
             id="path66"
             style="fill:#292f33;fill-opacity:1;fill-rule:nonzero;stroke:none"
             d="m 0,0 -4.653,-0.737 c -0.272,-0.043 -0.529,0.144 -0.572,0.416 l -0.157,0.987 c -0.043,0.272 0.144,0.529 0.416,0.572 l 4.653,0.737 C -0.041,2.018 0.216,1.831 0.259,1.56 L 0.416,0.572 C 0.459,0.3 0.272,0.043 0,0" /></g><g
           transform="translate(23.4479,5.5392)"
           id="g68"><path
             id="path70"
             style="fill:#292f33;fill-opacity:1;fill-rule:nonzero;stroke:none"
             d="m 0,0 4.653,-0.737 c 0.272,-0.043 0.529,0.144 0.572,0.416 L 5.382,0.666 C 5.425,0.938 5.238,1.195 4.966,1.238 L 0.313,1.975 C 0.041,2.018 -0.216,1.831 -0.259,1.56 L -0.416,0.572 C -0.459,0.3 -0.272,0.043 0,0" /></g><g
           transform="translate(11.875,18)"
           id="g72"><path
             id="path74"
             style="fill:#99aab5;fill-opacity:1;fill-rule:nonzero;stroke:none"
             d="m 0,0 c 0,0 -0.174,-9 6.113,-9 6.287,0 6.137,9 6.137,9 l 0.875,0 c 0,0 -0.307,-10 -7,-10 -6.693,0 -7,10 -7,10 L 0,0 Z" /></g><g
           transform="translate(26,18)"
           id="g76"><path
             id="path78"
             style="fill:#292f33;fill-opacity:1;fill-rule:nonzero;stroke:none"
             d="m 0,0 -16,0 c -0.55,0 -1,0.45 -1,1 l 0,11 c 0,3.3 2.7,6 6,6 l 6,0 c 3.3,0 6,-2.7 6,-6 L 1,1 C 1,0.45 0.55,0 0,0" /></g><path
           id="path80"
           style="fill:#f5f8fa;fill-opacity:1;fill-rule:nonzero;stroke:none"
           d="m 18.5,0 -1,0 0,5 1,0 0,-5 z" /><g
           transform="translate(14.6198,8.1841)"
           id="g82"><path
             id="path84"
             style="fill:#292f33;fill-opacity:1;fill-rule:nonzero;stroke:none"
             d="m 0,0 c 0,0 -0.62,0.127 -0.62,-1.184 0,-1.311 1.888,-3 4,-3 l 0,2 C 2.236,-2.184 0,-1.576 0,0" /></g><g
           transform="translate(21.3802,8.1841)"
           id="g86"><path
             id="path88"
             style="fill:#292f33;fill-opacity:1;fill-rule:nonzero;stroke:none"
             d="m 0,0 c 0,0 0.62,0.127 0.62,-1.184 0,-1.311 -1.888,-3 -4,-3 l 0,2 C -2.236,-2.184 0,-1.576 0,0" /></g></g></g></g><g
     transform="matrix(0.13678372,0,0,0.13678372,-29.351912,-63.332435)"
     id="layer1"><path
       d="m 378.28095,470.89388 c -9.15532,25.42539 -25.55617,47.38993 -46.71875,63.40625 l 0,60.5625 c 17.19219,-8.40102 32.91716,-19.32094 46.71875,-32.28125 13.8016,12.96031 29.52656,23.88023 46.71875,32.28125 l 0,-60.5625 c -21.16258,-16.01632 -37.56343,-37.98086 -46.71875,-63.40625 z"
       id="path7672"
       style="fill:#1a374f;fill-opacity:1;stroke:#000000;stroke-width:0;stroke-miterlimit:4;stroke-dasharray:none;stroke-opacity:1"
       inkscape:connector-curvature="0" /><path
       d="m 378.28095,487.33138 c -9.80201,19.78862 -24.02909,37.02277 -41.375,50.375 l 0,12.8125 c 16.36319,-11.3349 30.44222,-25.74882 41.375,-42.40625 10.93278,16.65743 25.01184,31.07135 41.375,42.40625 l 0,-12.8125 c -17.34591,-13.35223 -31.57296,-30.58638 -41.375,-50.375 z"
       id="path7674"
       style="fill:#f3c463;fill-opacity:1;stroke:#000000;stroke-width:0;stroke-miterlimit:4;stroke-dasharray:none;stroke-opacity:1"
       inkscape:connector-curvature="0" /><path
       d="m 378.28095,517.01888 c -11.28393,15.5519 -25.32034,28.98516 -41.375,39.59375 l 0,11.59375 c 15.63772,-9.50463 29.59998,-21.48184 41.375,-35.375 11.77503,13.89316 25.7373,25.87037 41.375,35.375 l 0,-11.59375 c -16.05466,-10.60859 -30.09105,-24.04185 -41.375,-39.59375 z"
       id="path7676"
       style="fill:#f3c463;fill-opacity:1;stroke:#000000;stroke-width:0;stroke-miterlimit:4;stroke-dasharray:none;stroke-opacity:1"
       inkscape:connector-curvature="0" /><path
       d="m 378.28095,540.89388 c -11.96861,13.16411 -25.91245,24.48212 -41.375,33.5 l 0,11.25 c 15.22181,-8.25758 29.1192,-18.61752 41.375,-30.65625 12.2558,12.03873 26.15321,22.39867 41.375,30.65625 l 0,-11.25 c -15.46255,-9.01788 -29.40636,-20.33589 -41.375,-33.5 z"
       id="path7678"
       style="fill:#f3c463;fill-opacity:1;stroke:#000000;stroke-width:0;stroke-miterlimit:4;stroke-dasharray:none;stroke-opacity:1"
       inkscape:connector-curvature="0" /></g></svg>